<?xml version="1.0" encoding="UTF-8" standalone="no"?>
<!-- Created with Inkscape (http://www.inkscape.org/) -->

<svg
   version="1.1"
   id="svg1"
   width="327.83997"
   height="327.68069"
   viewBox="0 0 327.83996 327.68069"
   sodipodi:docname="favicon.svg"
   xml:space="preserve"
   inkscape:version="1.4.2 (f4327f4, 2025-05-13)"
   inkscape:export-filename="favicon.png"
   inkscape:export-xdpi="96"
   inkscape:export-ydpi="96"
   xmlns:inkscape="http://www.inkscape.org/namespaces/inkscape"
   xmlns:sodipodi="http://sodipodi.sourceforge.net/DTD/sodipodi-0.dtd"
   xmlns="http://www.w3.org/2000/svg"
   xmlns:svg="http://www.w3.org/2000/svg"><defs
     id="defs1" /><sodipodi:namedview
     id="namedview1"
     pagecolor="#ffffff"
     bordercolor="#000000"
     borderopacity="0.25"
     inkscape:showpageshadow="2"
     inkscape:pageopacity="0.0"
     inkscape:pagecheckerboard="0"
     inkscape:deskcolor="#d1d1d1"
     showgrid="false"
     inkscape:zoom="2.3590088"
     inkscape:cx="160.23679"
     inkscape:cy="159.60093"
     inkscape:window-width="1920"
     inkscape:window-height="991"
     inkscape:window-x="-9"
     inkscape:window-y="-9"
     inkscape:window-maximized="1"
     inkscape:current-layer="g1" /><g
     inkscape:groupmode="layer"
     inkscape:label="Image"
     id="g1"
     transform="translate(-3.5984626,-4.1258578)"><g
       id="g2"
       transform="translate(3.5984626,4.1258578)"><g
         id="g11"><path
           style="fill:#9ca0a4"
           d="M 0,163.84 V 0 H 163.84 327.67999 V 163.84 327.67999 H 163.84 0 Z m 143.6954,88.33507 c 1.15711,-0.36094 2.80589,-1.20906 3.75109,-1.92954 2.15253,-1.64078 2.26064,-1.62283 2.37678,0.39446 l 0.0967,1.68 3.44,0.0908 3.44,0.0908 v -11.88464 -11.88463 l -0.50373,-1.96619 c -1.22022,-4.76285 -4.33475,-7.65367 -9.73041,-9.03153 l -2.07413,-0.52965 -4.64587,0.15272 -4.64586,0.15272 -2.75842,0.95 c -5.85388,2.01607 -6.33444,2.62215 -4.57449,5.76923 1.39043,2.48633 1.64796,2.60737 3.26733,1.53573 0.69918,-0.4627 2.25996,-1.19016 3.46841,-1.61659 l 2.19717,-0.77533 2.74192,-0.007 c 5.73918,-0.0141 8.75531,2.01642 9.45022,6.36216 l 0.2091,1.30763 -0.3998,0.48173 -0.39981,0.48173 -5.96082,0.006 -5.96081,0.006 -2.12195,0.44977 c -3.8238,0.81049 -7.05821,2.90803 -8.33085,5.40261 l -0.6551,1.28409 -0.16835,2.45627 -0.16836,2.45627 0.57354,1.72678 0.57355,1.72677 1.79112,1.79112 1.79112,1.79112 1.90183,0.71157 c 3.82486,1.43106 8.19169,1.56451 12.02885,0.36759 z m -7.94067,-5.50902 c -0.75089,-0.36412 -1.68689,-1.11295 -2.08,-1.66405 L 132.96,243.99999 v -1.81653 -1.81653 l 0.65663,-0.90347 c 0.36115,-0.49691 1.34631,-1.24909 2.18925,-1.67151 l 1.53262,-0.76805 5.40485,-0.15603 5.40484,-0.15604 0.4859,0.40327 0.48591,0.40326 v 2.01999 c 0,3.27698 -1.53907,5.62164 -4.64,7.06873 l -1.6,0.74666 -2.88,-0.0128 -2.88,-0.0128 z m -46.794732,-0.12612 0.16,-5.78007 3.511121,-3.73993 c 4.446946,-4.73675 3.430696,-5.15776 11.244071,4.65821 3.67664,4.61898 7.16956,8.93898 7.76204,9.6 l 1.07724,1.20185 h 4.38943 c 2.41419,0 4.48474,-0.0953 4.60123,-0.2118 0.25974,-0.25973 -0.1294,-0.78357 -6.97411,-9.3882 -8.50356,-10.68999 -11.22978,-14.17011 -11.81446,-15.0816 l -0.53986,-0.84161 0.89165,-1.05971 c 0.49041,-0.58284 4.59882,-5.02812 9.1298,-9.87839 9.7107,-10.395 9.26171,-9.29868 3.80825,-9.29868 h -4.4336 l -3.03134,3.12 c -3.78355,3.89421 -11.26608,11.84628 -15.382131,16.34739 -1.716368,1.87693 -3.408368,3.45862 -3.76,3.51486 l -0.639331,0.10226 v -11.55182 -11.55182 l -4.08,0.0896 -4.08,0.0896 -0.08282,22.39999 c -0.04555,12.32 -0.01236,22.58446 0.07376,22.8099 l 0.156578,0.4099 3.926245,-0.0899 3.926244,-0.0899 z M 174.88,235.03999 V 217.76 h -3.84 -3.84 l -0.0832,16.95999 c -0.0457,9.328 -0.0125,17.1446 0.0739,17.37021 l 0.15705,0.41021 3.76613,-0.0902 3.76613,-0.0902 z m 18.41521,7.2 0.17521,-10.08 0.43833,-1.12 c 1.63093,-4.16732 4.59449,-6.30267 9.27573,-6.68349 L 205.6,224.15999 V 220.8 217.44 l -1.11873,-0.10615 c -3.01459,-0.28603 -7.0003,1.23781 -9.49854,3.63154 -2.10624,2.01814 -2.34273,1.86852 -2.34273,-1.48205 v -1.90431 l -3.6,0.0905 -3.6,0.0905 -0.0832,16.95999 c -0.0457,9.328 -0.0125,17.1446 0.0739,17.37021 l 0.15705,0.41021 3.76613,-0.0902 3.76613,-0.0902 z m 27.18479,-0.48 0.16,-10.56 0.83542,-1.7813 c 2.53332,-5.40157 9.73392,-7.47007 14.30412,-4.10911 l 1.30924,0.96283 0.89561,1.82379 0.8956,1.82379 0.16,11.2 0.16,11.2 h 3.84 3.84 v -12 -12 l -0.62564,-1.90944 c -1.43595,-4.38243 -4.30173,-7.23904 -8.55977,-8.53238 l -2.22334,-0.67532 -3.73562,0.15187 -3.73563,0.15186 -1.76,0.68634 c -0.968,0.37748 -2.61866,1.33263 -3.66815,2.12255 -2.18858,1.64729 -2.33975,1.59867 -2.47351,-0.79547 L 220,217.76 l -3.6,-0.0905 -3.6,-0.0905 v 17.46064 17.46063 l 3.76,-0.0902 3.76,-0.0902 z m -47.26973,-30.67875 c 0.56635,-0.24132 1.38973,-0.82892 1.82973,-1.30578 l 0.8,-0.86703 V 206.88 204.85156 l -0.8,-0.85619 c -2.36443,-2.53049 -6.3888,-2.30959 -8.23363,0.45195 l -0.72637,1.08732 v 1.34536 1.34535 l 0.72637,1.08732 c 1.33115,1.9926 4.08999,2.75451 6.4039,1.76857 z m 41.60861,-35.30888 C 230.86896,165.14289 229.79706,166.10011 228.00173,164 l -1.09424,-1.28 -6.78753,-0.16 c -4.0933,-0.0965 -6.83051,-0.28702 -6.89581,-0.48 -0.63076,-1.8641 -11.25958,-22.41925 -11.62415,-22.48004 -0.29016,-0.0484 -0.95897,0.71099 -1.69101,1.92 -0.66606,1.10002 -2.17806,3.48053 -3.36,5.29002 -1.18195,1.80949 -3.48993,5.37558 -5.12885,7.92464 l -2.97985,4.63466 1.35255,2.47536 c 0.7439,1.36145 2.45538,4.41936 3.80328,6.79536 1.3479,2.376 3.50408,6.192 4.79152,8.48 1.28744,2.288 2.69704,4.63955 3.13245,5.22568 l 0.79166,1.06569 0.78301,-0.19653 c 0.43066,-0.10808 5.70651,-3.4572 11.72412,-7.44248 z m -10.86317,-43.74073 c 9.03035,-2.20662 8.73519,-1.57146 4.49645,-9.67571 -3.1588,-6.03948 -2.99397,-5.88968 -7.65216,-6.95445 -1.936,-0.44252 -5.104,-1.17164 -7.04,-1.62026 l -3.52,-0.81567 -1.84,0.35886 -1.84,0.35886 v 0.48645 c 0,0.6883 9.83358,19.59613 10.18359,19.58082 0.11902,-0.005 3.36448,-0.77871 7.21212,-1.7189 z m -13.87358,-25.28374 c 9.36438,-2.27631 9.08733,-1.45682 3.1656,-9.363284 -6.85258,-9.149314 -6.36387,-8.770716 -9.01609,-6.984608 -0.9147,0.616 -1.78381,1.12 -1.93134,1.12 -0.14753,0 -3.86582,-3.471628 -8.26288,-7.714729 -9.75588,-9.41431 -9.56344,-9.776043 -2.3474,4.412499 8.66597,17.039502 10.39233,20.262232 10.85406,20.262232 0.22684,0 3.61896,-0.77945 7.53805,-1.73211 z"
           id="path11" /></g><path
         style="fill:#767c82"
         d="M 0,163.84 V 0 H 163.84 327.67999 V 163.84 327.67999 H 163.84 0 Z m 141.43807,89.25802 c 2.4646,-0.39986 4.52106,-1.25436 6.14316,-2.55262 1.58583,-1.26922 1.80717,-1.20302 1.92123,0.57459 l 0.0975,1.52 3.49264,0.0914 c 4.46796,0.11688 4.07042,1.31824 4.06635,-12.28862 l -0.004,-11.80274 -0.50826,-1.89604 c -1.3218,-4.93086 -4.44972,-7.90951 -9.7864,-9.31934 l -2.0608,-0.54442 -4,0.0107 -4,0.0107 -2.56,0.67427 c -2.78342,0.73312 -6.72196,2.47176 -7.60927,3.35908 l -0.5564,0.5564 1.33392,2.56395 c 1.67232,3.21441 1.53355,3.17931 5.25812,1.33005 l 3.11252,-1.54539 h 3.87056 3.87055 l 1.68803,0.93524 c 1.88153,1.04243 2.71909,2.1705 3.28609,4.42587 l 0.38241,1.5211 -0.39745,0.4789 -0.39745,0.47889 -5.80082,0.006 -5.80081,0.006 -2.15254,0.45617 c -4.09919,0.8687 -7.18213,2.92061 -8.65175,5.75833 l -0.67035,1.29438 -0.14034,2.76899 -0.14034,2.76898 0.79227,1.71102 c 0.93751,2.02465 3.03779,4.19894 5.04305,5.22074 1.24788,0.63587 2.1721,0.89498 5.6,1.57 1.24279,0.24474 3.22402,0.19154 5.27807,-0.1417 z m -5.43549,-6.75651 c -3.69806,-1.9077 -3.85329,-6.36204 -0.28483,-8.17323 l 1.40225,-0.71171 4.99374,-0.21459 c 2.74656,-0.11802 5.37456,-0.11901 5.84,-0.002 l 0.84626,0.2124 v 2.19774 2.19774 l -1.04,1.54683 c -0.58545,0.87077 -1.72146,1.96625 -2.59916,2.50643 l -1.55915,0.95959 -3.08085,0.11125 -3.08084,0.11125 z m -46.795221,0.42182 0.08736,-5.87667 3.62221,-3.69338 c 2.086811,-2.12782 3.772207,-3.60069 3.976073,-3.47469 0.194624,0.12028 3.749828,4.46281 7.900458,9.65005 l 7.54659,9.43135 h 4.93109 c 2.7121,0 5.00127,-0.11356 5.08706,-0.25236 0.22068,-0.35708 -0.4523,-1.22803 -16.37176,-21.18764 -3.65922,-4.58788 -3.74331,-3.97835 1.29356,-9.37578 2.332,-2.49894 6.436,-6.89207 9.12,-9.76251 5.92408,-6.3356 5.92497,-5.8217 -0.0101,-5.8217 h -4.89005 l -4.14995,4.41072 c -2.28247,2.42589 -7.16253,7.61411 -10.844566,11.52938 -3.682038,3.91527 -6.812137,7.00114 -6.955776,6.85751 -0.143638,-0.14364 -0.299062,-5.29587 -0.345385,-11.44939 L 89.119998,206.56 h -4.32 -4.32 l -0.08281,22.71999 c -0.04554,12.496 -0.01245,22.9042 0.07354,23.12934 l 0.156345,0.40933 4.246461,-0.0893 4.246462,-0.0893 z M 175.2,235.03999 V 217.44 l -3.97476,-0.0903 -3.97476,-0.0903 -0.26034,0.41029 c -0.30044,0.47348 -0.37018,33.85725 -0.0724,34.63339 l 0.1978,0.51545 4.0422,-0.0893 4.04221,-0.0893 z m 18.4,7.36 0.16,-10.24 0.82885,-1.76 c 1.15045,-2.44288 2.27681,-3.66849 4.2657,-4.64156 l 1.70518,-0.83427 2.68013,-0.22208 2.68014,-0.22209 V 220.8 217.12 l -1.55519,-0.099 c -3.23818,-0.20607 -6.55853,1.01647 -9.19251,3.38465 -1.8827,1.69271 -2.14162,1.57368 -2.27473,-1.04567 l -0.0976,-1.92 -3.65433,-0.091 -3.65432,-0.091 -0.26078,0.41099 c -0.31627,0.49845 -0.3633,34.6116 -0.0481,34.92675 0.12234,0.12233 2.03034,0.18233 4.24,0.13333 l 4.01758,-0.0891 z m 27.22025,-0.32 c 0.11122,-6.51542 0.3184,-10.96267 0.54092,-11.61135 0.88019,-2.56582 2.60796,-4.46692 5.03503,-5.54017 l 1.59621,-0.70584 2.24379,-0.0313 2.24379,-0.0313 1.49966,0.5787 c 1.94184,0.74933 3.61095,2.6144 4.24229,4.74032 l 0.49805,1.67715 0.005,10.42191 c 0.003,5.73206 0.12206,10.60655 0.26525,10.83221 l 0.26034,0.41029 3.97476,-0.0903 3.97475,-0.0903 0.0898,-11.04 0.0898,-11.04 -0.35343,-2.12883 c -0.46172,-2.78106 -1.84242,-5.64837 -3.65084,-7.58172 l -1.45345,-1.55385 -2.1729,-1.00156 c -1.28958,-0.5944 -3.1762,-1.1411 -4.64092,-1.34483 l -2.46802,-0.34326 -2.36719,0.32924 c -3.09783,0.43087 -5.55574,1.37475 -7.62114,2.92666 -2.13176,1.60178 -2.12167,1.60441 -2.2357,-0.58184 l -0.096,-1.84 -3.92,-0.0898 -3.92,-0.0899 -0.0413,6.00985 c -0.21655,31.54773 -0.5056,29.57024 4.3061,29.45949 l 3.89516,-0.0896 z m -47.18971,-30.84924 c 0.76088,-0.34555 1.59972,-1.06307 2,-1.71074 l 0.68946,-1.11556 v -1.5949 -1.59491 l -0.72,-1.05481 c -0.98749,-1.44668 -2.60658,-2.24096 -4.55501,-2.23457 l -1.60499,0.005 -1.24669,0.71474 c -0.68568,0.3931 -1.52254,1.21874 -1.85969,1.83474 l -0.613,1.12 0.12123,1.6223 c 0.27841,3.72565 4.09097,5.68778 7.78869,4.00845 z m 36.49477,-31.96048 c 3.67108,-2.42534 9.51869,-6.31514 12.99469,-8.64398 l 6.31999,-4.23427 v -0.64316 c 0,-0.35374 -0.59433,-1.28795 -1.32075,-2.07601 l -1.32076,-1.43285 -6.11924,-0.0225 c -3.36558,-0.0124 -6.38321,-0.12646 -6.70583,-0.25352 l -0.58659,-0.23102 -5.27011,-10.85974 c -6.11121,-12.59293 -6.50838,-13.18905 -7.511,-11.27323 -0.20724,0.396 -0.84345,1.44 -1.4138,2.32 -0.57035,0.88 -3.22886,4.97533 -5.90781,9.10075 -2.67895,4.12541 -4.94424,7.69208 -5.03398,7.92594 -0.18022,0.46966 1.16682,3.15026 4.38864,8.73331 1.16799,2.024 3.54872,6.19463 5.2905,9.26807 4.67637,8.25162 3.5467,8.03652 12.19605,2.3222 z m -9.91369,-46.0016 c 7.68831,-1.79847 10.22141,-2.47379 10.90838,-2.90817 l 0.72,-0.45526 -0.0146,-0.87262 c -0.008,-0.47994 -1.34001,-3.46462 -2.96,-6.63262 l -2.94544,-5.76 -0.84813,-0.40219 c -0.79858,-0.37868 -2.94417,-0.91224 -11.29357,-2.80842 -2.17328,-0.49355 -3.93353,-0.72321 -4.64,-0.60537 -1.78842,0.29831 -3.2183,0.79795 -3.2183,1.12456 0,0.39829 8.93853,17.9493 10.13047,19.89142 0.21002,0.34219 0.32113,0.32693 4.16115,-0.57133 z m -10.02358,-26.18931 c 9.69935,-2.38501 9.49968,-1.67001 2.91554,-10.440242 -6.58167,-8.766948 -6.17315,-8.454443 -8.78358,-6.71912 -2.11051,1.402991 -2.07841,1.420468 -8.08239,-4.4 -10.02398,-9.717589 -11.09016,-10.694739 -11.43596,-10.481022 l -0.34253,0.211697 0.61082,1.014663 c 0.33596,0.558064 3.16582,6.054662 6.28858,12.214662 3.12276,6.16 6.7512,13.252002 8.0632,15.760002 l 2.38546,4.56 0.69641,-10e-4 c 0.38302,-6.4e-4 3.84103,-0.77441 7.68445,-1.71948 z"
         id="path10" /><path
         style="fill:#2d9f99"
         d="M 0,163.84 V 0 H 163.84 327.67999 V 163.84 327.67999 H 163.84 0 Z m 142.88,89.16604 c 1.93852,-0.51656 3.45345,-1.27003 5.00583,-2.48972 l 1.16583,-0.91598 0.19417,0.506 c 0.10679,0.2783 0.19417,1.00265 0.19417,1.60968 v 1.10367 l 3.92,-0.0899 3.92,-0.0898 v -12.32 -12.32 l -0.72207,-2.29647 -0.72206,-2.29646 -1.64053,-1.79501 c -1.8408,-2.01412 -3.44099,-3.05409 -6.22091,-4.04296 l -1.89443,-0.67389 -3.84,-0.16546 -3.84,-0.16547 -2.60738,0.49411 c -4.41385,0.83645 -9.71262,3.29885 -9.71262,4.51358 0,0.4448 2.38794,4.93807 2.89664,5.45049 0.18815,0.18952 1.25076,-0.20398 2.84585,-1.05389 1.47893,-0.788 3.5244,-1.56363 4.88154,-1.85104 l 2.33597,-0.49471 2.08,0.20391 c 4.47854,0.43904 7.36,2.939 7.36,6.38554 v 1.06216 l -6.64,0.17303 -6.64,0.17302 -2.11931,0.61551 c -3.75218,1.08974 -6.68442,3.36282 -7.89389,6.11935 l -0.51101,1.16466 -0.0179,2.88 -0.0179,2.88 0.75346,1.44 c 2.79306,5.33801 10.56274,8.13105 17.48654,6.28605 z m -5.44,-6.26323 c -1.40992,-0.34026 -2.22944,-0.84773 -3.16549,-1.96015 l -0.83451,-0.99177 0.001,-1.49545 c 0.002,-1.91497 0.92357,-3.45088 2.48581,-4.14083 l 1.193,-0.52687 5.68,-0.12496 5.68,-0.12495 v 2.38376 2.38376 l -0.72366,1.07383 c -2.02935,3.01135 -6.33923,4.48342 -10.31634,3.52363 z m -14.89373,5.84272 c 0.2724,-0.24473 -0.82847,-1.74307 -6.6218,-9.01263 -9.75542,-12.24124 -12.60867,-15.87681 -12.78159,-16.28609 -0.18156,-0.42973 0.16932,-0.82696 10.93712,-12.38187 4.048,-4.34391 7.36,-8.07057 7.36,-8.28148 V 206.24 l -4.733,-0.0886 c -5.91236,-0.11072 -2.97133,-2.41159 -19.87079,15.54558 -3.852083,4.09317 -7.092083,7.35401 -7.2,7.24631 -0.107917,-0.1077 -0.268212,-5.26 -0.356212,-11.44955 l -0.16,-11.25371 h -4.32 -4.32 l -0.08209,23.27999 -0.08209,23.28 h 4.482091 4.48209 v -5.76876 -5.76877 l 3.401596,-3.59123 c 4.358359,-4.60134 3.258516,-5.13089 11.947145,5.75229 4.60998,5.77435 7.71764,9.39781 8.13535,9.48565 0.7801,0.16403 9.56279,-0.12653 9.78218,-0.32364 z m 52.73373,0.0499 0.4,-0.13535 V 235.349 218.19792 l -0.33126,-0.61896 -0.33126,-0.61896 h -3.64257 c -2.00341,0 -3.87035,0.0874 -4.14874,0.19423 l -0.50617,0.19424 v 17.7023 17.7023 l 0.52532,0.10346 c 0.70253,0.13837 7.52737,-0.0494 8.03468,-0.2211 z m 69.75999,0.27754 2.32,-0.16758 -0.007,-12.3727 -0.007,-12.3727 -0.7463,-2.1141 c -3.27387,-9.27416 -15.82919,-12.45691 -24.13378,-6.11787 -1.61468,1.23251 -1.81846,1.1681 -1.71751,-0.54292 l 0.073,-1.23746 -0.51382,-0.51382 -0.51383,-0.51382 -3.41714,0.005 c -1.87943,0.003 -3.59839,0.11996 -3.81991,0.26059 l -0.40276,0.25569 0.0828,17.57941 0.0828,17.5794 4.13495,0.09 4.13495,0.09 0.26015,-0.40997 c 0.14308,-0.22549 0.26235,-4.88384 0.26504,-10.3519 l 0.005,-9.94191 0.50142,-1.68847 0.50142,-1.68847 1.32419,-1.43659 c 2.39501,-2.59828 6.21763,-3.63559 9.83296,-2.66828 l 1.44,0.38528 1.44254,1.49018 c 0.7934,0.8196 1.64494,2.06618 1.89232,2.77018 l 0.44978,1.28 0.13288,11.10139 0.13287,11.10139 0.53481,0.0986 c 1.0555,0.19462 3.45577,0.21622 5.7348,0.0516 z m -51.28815,-0.83298 c 0.0902,-0.396 0.20096,-5.112 0.2461,-10.48 l 0.0821,-9.76 0.67381,-1.45625 c 0.94205,-2.03599 2.45424,-3.65352 4.22025,-4.51422 l 1.50594,-0.73395 2.72,-0.16779 2.72,-0.16779 0.0899,-3.92624 0.0899,-3.92624 -0.51963,-0.19941 c -2.00468,-0.76926 -7.8988,1.15373 -10.46804,3.41526 -1.84781,1.62651 -1.83212,1.63193 -1.83212,-0.63211 v -1.90874 l -0.61897,-0.33126 c -0.66082,-0.35366 -6.34805,-0.46197 -7.19486,-0.13702 l -0.50617,0.19424 v 17.72576 17.72576 h 4.3139 4.3139 z m -21.1831,-40.25924 c 4.70675,-1.30707 5.42931,-7.45169 1.12149,-9.53707 -5.58603,-2.70416 -10.91456,3.98809 -6.54643,8.22185 1.58535,1.53658 3.20973,1.93039 5.42494,1.31522 z m 37.88469,-32.55661 c 14.42265,-9.55341 18.30898,-12.2223 18.78291,-12.89892 l 0.49322,-0.70417 -0.27683,-0.51053 c -0.15225,-0.28079 -0.77661,-1.08652 -1.38746,-1.79052 l -1.11064,-1.28 -6.65089,-0.16 -6.65089,-0.16 -3.14324,-6.4 c -1.72879,-3.52 -4.26068,-8.632 -5.62643,-11.36 l -2.48318,-4.96 -0.88,-0.10126 -0.88,-0.10125 v 0.42855 c 0,0.2357 -0.46951,1.14527 -1.04336,2.02125 -0.57384,0.87599 -1.78127,2.74471 -2.68318,4.15271 -0.90191,1.408 -3.31322,5.13305 -5.35846,8.27789 l -3.71861,5.71789 1.00767,1.80211 c 12.14799,21.72531 12.58962,22.42859 14.08937,22.43721 l 0.85344,0.005 z m -5.97112,-46.82222 6.75283,-1.63807 0.49126,-0.74976 0.49126,-0.74976 -0.3948,-1.21217 c -0.64925,-1.99341 -5.80843,-11.62474 -6.39521,-11.93877 -0.29897,-0.16 -3.3345,-0.97149 -6.74562,-1.8033 l -6.20203,-1.51239 -2.56,0.0101 c -1.408,0.006 -2.96785,0.17802 -3.46632,0.38324 l -0.90632,0.37312 4.09987,7.91791 c 2.25493,4.35486 4.60677,8.9579 5.22632,10.22898 l 1.12645,2.31107 0.86474,0.009 c 0.47561,0.005 3.90352,-0.7282 7.61757,-1.62914 z m -14.62522,-25.0966 c 7.68532,-1.83742 8.30291,-2.09522 8.30291,-3.46588 v -0.81771 l -5.26878,-6.970865 -5.26877,-6.970867 -0.79926,-0.283498 -0.79926,-0.283497 -1.7277,1.163497 c -0.95023,0.639924 -1.84582,1.163498 -1.99021,1.163498 -0.14438,0 -3.98725,-3.6 -8.5397,-8 -7.27163,-7.028107 -9.28632,-8.709754 -9.28632,-7.751202 0,0.136839 0.1957,0.532839 0.43489,0.88 0.35463,0.5147 9.25737,17.877125 15.54136,30.309304 0.77894,1.54104 1.54263,2.8019 1.69709,2.8019 0.15447,0 3.62115,-0.79861 7.70375,-1.77468 z"
         id="path9" /><path
         style="fill:#17b075"
         d="M 0,163.84 V 0 H 163.84 327.67999 V 163.84 327.67999 H 163.84 0 Z m 142.88,89.16604 c 1.93852,-0.51656 3.45345,-1.27003 5.00583,-2.48972 l 1.16583,-0.91598 0.19417,0.506 c 0.10679,0.2783 0.19417,1.00265 0.19417,1.60968 v 1.10367 l 3.92,-0.0899 3.92,-0.0898 v -12.32 -12.32 l -0.72207,-2.29647 -0.72206,-2.29646 -1.64053,-1.79501 c -1.8408,-2.01412 -3.44099,-3.05409 -6.22091,-4.04296 l -1.89443,-0.67389 -3.84,-0.16546 -3.84,-0.16547 -2.60738,0.49411 c -4.41385,0.83645 -9.71262,3.29885 -9.71262,4.51358 0,0.4448 2.38794,4.93807 2.89664,5.45049 0.18815,0.18952 1.25076,-0.20398 2.84585,-1.05389 1.47893,-0.788 3.5244,-1.56363 4.88154,-1.85104 l 2.33597,-0.49471 2.08,0.20391 c 4.47854,0.43904 7.36,2.939 7.36,6.38554 v 1.06216 l -6.64,0.17303 -6.64,0.17302 -2.11931,0.61551 c -3.75218,1.08974 -6.68442,3.36282 -7.89389,6.11935 l -0.51101,1.16466 -0.0179,2.88 -0.0179,2.88 0.75346,1.44 c 2.79306,5.33801 10.56274,8.13105 17.48654,6.28605 z m -5.44,-6.26323 c -1.40992,-0.34026 -2.22944,-0.84773 -3.16549,-1.96015 l -0.83451,-0.99177 0.001,-1.49545 c 0.002,-1.91497 0.92357,-3.45088 2.48581,-4.14083 l 1.193,-0.52687 5.68,-0.12496 5.68,-0.12495 v 2.38376 2.38376 l -0.72366,1.07383 c -2.02935,3.01135 -6.33923,4.48342 -10.31634,3.52363 z m -14.89373,5.84272 c 0.2724,-0.24473 -0.82847,-1.74307 -6.6218,-9.01263 -9.75542,-12.24124 -12.60867,-15.87681 -12.78159,-16.28609 -0.18156,-0.42973 0.16932,-0.82696 10.93712,-12.38187 4.048,-4.34391 7.36,-8.07057 7.36,-8.28148 V 206.24 l -4.733,-0.0886 c -5.91236,-0.11072 -2.97133,-2.41159 -19.87079,15.54558 -3.852083,4.09317 -7.092083,7.35401 -7.2,7.24631 -0.107917,-0.1077 -0.268212,-5.26 -0.356212,-11.44955 l -0.16,-11.25371 h -4.32 -4.32 l -0.08209,23.27999 -0.08209,23.28 h 4.482091 4.48209 v -5.76876 -5.76877 l 3.401596,-3.59123 c 4.358359,-4.60134 3.258516,-5.13089 11.947145,5.75229 4.60998,5.77435 7.71764,9.39781 8.13535,9.48565 0.7801,0.16403 9.56279,-0.12653 9.78218,-0.32364 z m 52.73373,0.0499 0.4,-0.13535 V 235.349 218.19792 l -0.33126,-0.61896 -0.33126,-0.61896 h -3.64257 c -2.00341,0 -3.87035,0.0874 -4.14874,0.19423 l -0.50617,0.19424 v 17.7023 17.7023 l 0.52532,0.10346 c 0.70253,0.13837 7.52737,-0.0494 8.03468,-0.2211 z m 69.75999,0.27754 2.32,-0.16758 -0.007,-12.3727 -0.007,-12.3727 -0.7463,-2.1141 c -3.27387,-9.27416 -15.82919,-12.45691 -24.13378,-6.11787 -1.61468,1.23251 -1.81846,1.1681 -1.71751,-0.54292 l 0.073,-1.23746 -0.51382,-0.51382 -0.51383,-0.51382 -3.41714,0.005 c -1.87943,0.003 -3.59839,0.11996 -3.81991,0.26059 l -0.40276,0.25569 0.0828,17.57941 0.0828,17.5794 4.13495,0.09 4.13495,0.09 0.26015,-0.40997 c 0.14308,-0.22549 0.26235,-4.88384 0.26504,-10.3519 l 0.005,-9.94191 0.50142,-1.68847 0.50142,-1.68847 1.32419,-1.43659 c 2.39501,-2.59828 6.21763,-3.63559 9.83296,-2.66828 l 1.44,0.38528 1.44254,1.49018 c 0.7934,0.8196 1.64494,2.06618 1.89232,2.77018 l 0.44978,1.28 0.13288,11.10139 0.13287,11.10139 0.53481,0.0986 c 1.0555,0.19462 3.45577,0.21622 5.7348,0.0516 z m -51.28815,-0.83298 c 0.0902,-0.396 0.20096,-5.112 0.2461,-10.48 l 0.0821,-9.76 0.67381,-1.45625 c 0.94205,-2.03599 2.45424,-3.65352 4.22025,-4.51422 l 1.50594,-0.73395 2.72,-0.16779 2.72,-0.16779 0.0899,-3.92624 0.0899,-3.92624 -0.51963,-0.19941 c -2.00468,-0.76926 -7.8988,1.15373 -10.46804,3.41526 -1.84781,1.62651 -1.83212,1.63193 -1.83212,-0.63211 v -1.90874 l -0.61897,-0.33126 c -0.66082,-0.35366 -6.34805,-0.46197 -7.19486,-0.13702 l -0.50617,0.19424 v 17.72576 17.72576 h 4.3139 4.3139 z m -21.1831,-40.25924 c 4.70675,-1.30707 5.42931,-7.45169 1.12149,-9.53707 -5.58603,-2.70416 -10.91456,3.98809 -6.54643,8.22185 1.58535,1.53658 3.20973,1.93039 5.42494,1.31522 z m 37.88469,-32.55661 c 14.42265,-9.55341 18.30898,-12.2223 18.78291,-12.89892 l 0.49322,-0.70417 -0.27683,-0.51053 c -0.15225,-0.28079 -0.77661,-1.08652 -1.38746,-1.79052 l -1.11064,-1.28 -6.65089,-0.16 -6.65089,-0.16 -3.14324,-6.4 c -1.72879,-3.52 -4.26068,-8.632 -5.62643,-11.36 l -2.48318,-4.96 -1.04021,-0.10029 -1.04021,-0.10029 -0.33581,0.88325 c -0.1847,0.48579 -1.2461,2.25892 -2.35868,3.94029 -1.11258,1.68137 -3.14029,4.78504 -4.50603,6.89704 -1.36574,2.112 -3.18154,4.87821 -4.03512,6.14713 l -1.55195,2.30713 1.07398,1.85287 c 0.59069,1.01908 2.69675,4.73287 4.68013,8.25287 8.24012,14.62414 8.1888,14.54672 9.64733,14.5551 l 0.85344,0.005 z m -67.3924,-32.89471 c 2.71643,-0.63282 6.66697,-1.55181 8.77897,-2.0422 2.112,-0.49039 7.584,-1.77291 12.16,-2.85004 4.576,-1.07713 11.128,-2.61821 14.56,-3.42462 3.432,-0.80642 8.59637,-2.03014 11.47639,-2.71939 2.88001,-0.68925 5.78915,-1.25318 6.46474,-1.25318 0.6756,0 4.26713,-0.73714 7.98118,-1.63808 l 6.75283,-1.63807 0.49126,-0.74976 0.49126,-0.74976 -0.3948,-1.21217 c -0.64925,-1.99341 -5.80843,-11.62474 -6.39521,-11.93877 -0.29897,-0.16 -3.3345,-0.97149 -6.74562,-1.8033 l -6.20203,-1.51239 -2.56,-0.014 -2.56,-0.014 -1.32335,0.69087 c -0.72784,0.37998 -3.39184,1.14006 -5.92,1.68908 -2.52816,0.54901 -7.18865,1.62236 -10.35665,2.38521 -3.168,0.76285 -7.77239,1.856 -10.23197,2.42923 l -4.47198,1.04223 -0.93904,0.9968 c -0.91811,0.97457 -4.49062,6.33363 -10.91701,16.37641 -1.76,2.75042 -3.72822,5.81199 -4.37382,6.8035 -0.97525,1.4978 -1.2488,2.29689 -0.78627,2.29689 0.0452,0 2.30468,-0.51776 5.02112,-1.15057 z m 46.79606,-39.02411 c 7.68532,-1.83742 8.30291,-2.09522 8.30291,-3.46588 v -0.81771 l -5.26878,-6.970865 -5.26877,-6.970867 -0.79926,-0.283498 -0.79926,-0.283497 -1.7277,1.163497 c -0.95023,0.639924 -1.84582,1.163498 -1.99021,1.163498 -0.14438,0 -3.98725,-3.6 -8.5397,-8 l -8.2772,-8 h -0.66456 c -0.92256,0 -0.90229,0.06615 1.27993,4.17699 1.06947,2.014656 4.90279,9.524785 8.5185,16.689176 3.6157,7.164396 6.73668,13.093026 6.9355,13.174736 0.62188,0.25558 0.70725,0.23937 8.2986,-1.57558 z"
         id="path8" /><path
         style="fill:#596066"
         d="M 0,163.84 V 0 H 163.84 327.67999 V 163.84 327.67999 H 163.84 0 Z m 142.88,89.16604 c 1.93852,-0.51656 3.45345,-1.27003 5.00583,-2.48972 l 1.16583,-0.91598 0.19417,0.506 c 0.10679,0.2783 0.19417,1.00265 0.19417,1.60968 v 1.10367 l 3.92,-0.0899 3.92,-0.0898 v -12.32 -12.32 l -0.72207,-2.29647 -0.72206,-2.29646 -1.64053,-1.79501 c -1.8408,-2.01412 -3.44099,-3.05409 -6.22091,-4.04296 l -1.89443,-0.67389 -3.84,-0.16546 -3.84,-0.16547 -2.60738,0.49411 c -4.41385,0.83645 -9.71262,3.29885 -9.71262,4.51358 0,0.4448 2.38794,4.93807 2.89664,5.45049 0.18815,0.18952 1.25076,-0.20398 2.84585,-1.05389 1.47893,-0.788 3.5244,-1.56363 4.88154,-1.85104 l 2.33597,-0.49471 2.08,0.20391 c 4.47854,0.43904 7.36,2.939 7.36,6.38554 v 1.06216 l -6.64,0.17303 -6.64,0.17302 -2.11931,0.61551 c -3.75218,1.08974 -6.68442,3.36282 -7.89389,6.11935 l -0.51101,1.16466 -0.0179,2.88 -0.0179,2.88 0.75346,1.44 c 2.79306,5.33801 10.56274,8.13105 17.48654,6.28605 z m -5.44,-6.26323 c -1.40992,-0.34026 -2.22944,-0.84773 -3.16549,-1.96015 l -0.83451,-0.99177 0.001,-1.49545 c 0.002,-1.91497 0.92357,-3.45088 2.48581,-4.14083 l 1.193,-0.52687 5.68,-0.12496 5.68,-0.12495 v 2.38376 2.38376 l -0.72366,1.07383 c -2.02935,3.01135 -6.33923,4.48342 -10.31634,3.52363 z m -14.89373,5.84272 c 0.2724,-0.24473 -0.82847,-1.74307 -6.6218,-9.01263 -9.75542,-12.24124 -12.60867,-15.87681 -12.78159,-16.28609 -0.18156,-0.42973 0.16932,-0.82696 10.93712,-12.38187 4.048,-4.34391 7.36,-8.07057 7.36,-8.28148 V 206.24 l -4.733,-0.0886 c -5.91236,-0.11072 -2.97133,-2.41159 -19.87079,15.54558 -3.852083,4.09317 -7.092083,7.35401 -7.2,7.24631 -0.107917,-0.1077 -0.268212,-5.26 -0.356212,-11.44955 l -0.16,-11.25371 h -4.32 -4.32 l -0.08209,23.27999 -0.08209,23.28 h 4.482091 4.48209 v -5.76876 -5.76877 l 3.401596,-3.59123 c 4.358359,-4.60134 3.258516,-5.13089 11.947145,5.75229 4.60998,5.77435 7.71764,9.39781 8.13535,9.48565 0.7801,0.16403 9.56279,-0.12653 9.78218,-0.32364 z m 52.73373,0.0499 0.4,-0.13535 V 235.349 218.19792 l -0.33126,-0.61896 -0.33126,-0.61896 h -3.64257 c -2.00341,0 -3.87035,0.0874 -4.14874,0.19423 l -0.50617,0.19424 v 17.7023 17.7023 l 0.52532,0.10346 c 0.70253,0.13837 7.52737,-0.0494 8.03468,-0.2211 z m 69.75999,0.27754 2.32,-0.16758 -0.007,-12.3727 -0.007,-12.3727 -0.7463,-2.1141 c -3.27387,-9.27416 -15.82919,-12.45691 -24.13378,-6.11787 -1.61468,1.23251 -1.81846,1.1681 -1.71751,-0.54292 l 0.073,-1.23746 -0.51382,-0.51382 -0.51383,-0.51382 -3.41714,0.005 c -1.87943,0.003 -3.59839,0.11996 -3.81991,0.26059 l -0.40276,0.25569 0.0828,17.57941 0.0828,17.5794 4.13495,0.09 4.13495,0.09 0.26015,-0.40997 c 0.14308,-0.22549 0.26235,-4.88384 0.26504,-10.3519 l 0.005,-9.94191 0.50142,-1.68847 0.50142,-1.68847 1.32419,-1.43659 c 2.39501,-2.59828 6.21763,-3.63559 9.83296,-2.66828 l 1.44,0.38528 1.44254,1.49018 c 0.7934,0.8196 1.64494,2.06618 1.89232,2.77018 l 0.44978,1.28 0.13288,11.10139 0.13287,11.10139 0.53481,0.0986 c 1.0555,0.19462 3.45577,0.21622 5.7348,0.0516 z m -51.28815,-0.83298 c 0.0902,-0.396 0.20096,-5.112 0.2461,-10.48 l 0.0821,-9.76 0.67381,-1.45625 c 0.94205,-2.03599 2.45424,-3.65352 4.22025,-4.51422 l 1.50594,-0.73395 2.72,-0.16779 2.72,-0.16779 0.0899,-3.92624 0.0899,-3.92624 -0.51963,-0.19941 c -2.00468,-0.76926 -7.8988,1.15373 -10.46804,3.41526 -1.84781,1.62651 -1.83212,1.63193 -1.83212,-0.63211 v -1.90874 l -0.61897,-0.33126 c -0.66082,-0.35366 -6.34805,-0.46197 -7.19486,-0.13702 l -0.50617,0.19424 v 17.72576 17.72576 h 4.3139 4.3139 z m -21.1831,-40.25924 c 4.70675,-1.30707 5.42931,-7.45169 1.12149,-9.53707 -5.58603,-2.70416 -10.91456,3.98809 -6.54643,8.22185 1.58535,1.53658 3.20973,1.93039 5.42494,1.31522 z m -51.72782,-27.06248 c 1.24809,-0.52551 11.78487,-4.54173 27.15908,-10.35201 4.576,-1.72937 13.288,-5.05317 19.36,-7.38621 6.072,-2.33303 12.48,-4.77929 14.24,-5.43613 1.76,-0.65684 3.73537,-1.42593 4.38972,-1.70909 1.67534,-0.72498 1.68943,-0.71839 2.83266,1.32517 2.90355,5.19019 8.33778,14.77696 10.34565,18.25122 l 2.27197,3.93123 0.77643,0.19763 c 0.42704,0.10869 1.14704,0.0576 1.6,-0.11353 1.3297,-0.50239 24.09875,-15.74484 25.06892,-16.78207 l 0.88535,-0.94656 -0.33461,-0.62522 c -0.18403,-0.34386 -0.88414,-1.2029 -1.5558,-1.90896 l -1.2212,-1.28374 h -6.43066 -6.43066 l -0.2484,-0.4 c -0.13662,-0.22 -2.63288,-5.28268 -5.54725,-11.25041 -2.91438,-5.96772 -5.53744,-11.00089 -5.82904,-11.18483 l -0.53017,-0.33442 -2.98146,0.69793 c -16.32062,3.82054 -30.69953,7.17563 -39.46145,9.20771 -17.29851,4.0119 -22.27954,5.19516 -22.36383,5.31264 -0.15599,0.2174 -5.62775,9.48792 -9.41502,15.95138 -4.96466,8.47283 -6.35604,10.81188 -7.82115,13.1481 -1.58327,2.52464 -1.38436,2.79556 1.24092,1.69017 z m 22.22011,-38.38884 c 2.71643,-0.63282 6.66697,-1.55181 8.77897,-2.0422 2.112,-0.49039 7.584,-1.77291 12.16,-2.85004 4.576,-1.07713 11.128,-2.61821 14.56,-3.42462 3.432,-0.80642 8.59637,-2.03014 11.47639,-2.71939 2.88001,-0.68925 5.78915,-1.25318 6.46474,-1.25318 0.6756,0 4.26713,-0.73714 7.98118,-1.63808 l 6.75283,-1.63807 0.49126,-0.74976 0.49126,-0.74976 -0.3948,-1.21217 c -0.64925,-1.99341 -5.80843,-11.62474 -6.39521,-11.93877 -0.29897,-0.16 -3.3345,-0.97149 -6.74562,-1.8033 l -6.20203,-1.51239 -2.56,-0.014 -2.56,-0.014 -1.32335,0.69087 c -0.72784,0.37998 -3.39184,1.14006 -5.92,1.68908 -2.52816,0.54901 -7.18865,1.62236 -10.35665,2.38521 -3.168,0.76285 -7.77239,1.856 -10.23197,2.42923 l -4.47198,1.04223 -0.93904,0.9968 c -0.91811,0.97457 -4.49062,6.33363 -10.91701,16.37641 -1.76,2.75042 -3.72822,5.81199 -4.37382,6.8035 -0.97525,1.4978 -1.2488,2.29689 -0.78627,2.29689 0.0452,0 2.30468,-0.51776 5.02112,-1.15057 z M 129.44,120.95929 c 5.15936,-1.23468 9.87808,-2.33976 21.92,-5.13344 15.66457,-3.63413 19.3352,-4.49994 24.32,-5.7365 2.904,-0.72039 5.60216,-1.23091 5.99591,-1.1345 0.91502,0.22404 15.45829,-3.23949 16.04409,-3.82096 0.242,-0.24021 0.44,-0.80472 0.44,-1.25445 v -0.81771 l -5.26878,-6.970865 -5.26877,-6.970867 -0.79926,-0.283498 -0.79926,-0.283497 -1.7277,1.163497 c -0.95023,0.639924 -1.84582,1.163498 -1.99021,1.163498 -0.14438,0 -3.98725,-3.6 -8.5397,-8 -4.91396,-4.74939 -8.52456,-8 -8.88598,-8 -0.97787,0 -2.28582,1.780005 -7.75948,10.56 -0.93264,1.496 -2.58428,4.088 -3.67032,5.76 -1.08604,1.672 -2.75453,4.3 -3.70777,5.84 -2.11756,3.421032 -1.88248,3.423982 -6.38277,-0.08 -5.28593,-4.115676 -3.42318,-5.685442 -14.80927,12.480002 -1.93055,3.08 -4.35623,6.86864 -5.39041,8.41919 -1.98004,2.96871 -2.23739,3.81841 -1.32032,4.35928 0.65488,0.38624 0.8805,0.34886 7.6,-1.25918 z"
         id="path7" /><path
         style="fill:#1c6b65"
         d="M 0,163.84 V 0 H 163.84 327.67999 V 163.84 327.67999 H 163.84 0 Z m 142.72151,89.41783 2.20785,-0.50217 1.94612,-1.25783 c 2.37039,-1.53206 2.18729,-1.54017 2.30612,0.10216 l 0.0984,1.36 4.07152,0.0895 4.07152,0.0895 0.19583,-0.78025 c 0.1077,-0.42913 0.13323,-6.08541 0.0567,-12.56949 l -0.13911,-11.78926 -0.47944,-1.6 c -3.00001,-10.01176 -16.97186,-13.29551 -29.08963,-6.83681 -2.47642,1.31992 -2.02001,5.26937 0.88782,7.68265 l 0.41784,0.34678 3.28346,-1.64921 3.28347,-1.64922 2.56827,-0.18899 c 5.87124,-0.43205 9.71688,1.88058 9.7447,5.86011 l 0.007,1.00531 -6,0.20813 c -10.51374,0.36471 -14.96298,2.18764 -17.0571,6.9886 l -0.72959,1.67265 -0.0143,2.56 -0.0143,2.56 0.68974,1.52025 c 0.37935,0.83613 1.42176,2.29425 2.31646,3.24027 l 1.62673,1.72002 1.86093,0.83514 c 3.2822,1.47296 8.00775,1.86354 11.8829,0.98216 z m -6.38278,-7.2356 c -0.7817,-0.40823 -1.7177,-1.14888 -2.08,-1.64589 l -0.65873,-0.90365 0.0302,-1.39654 c 0.0388,-1.79524 0.80342,-2.93711 2.47473,-3.69594 l 1.33506,-0.60616 5.52,-0.007 5.52,-0.007 -0.002,1.36 c -0.004,3.04164 -1.38465,5.37857 -3.96792,6.71618 l -1.31029,0.67846 -2.72,0.12492 -2.72,0.12491 z m -46.738732,0.9929 0.16,-5.94487 3.2,-3.40481 c 4.059131,-4.31893 2.965081,-4.88609 11.643762,6.03614 l 7.48376,9.4184 h 5.39624 5.39624 v -0.49889 c 0,-0.50135 -2.58717,-4.06212 -5.58782,-7.69062 -0.8867,-1.07223 -3.0761,-3.80823 -4.86533,-6.08 -1.78922,-2.27177 -4.56122,-5.78036 -6.16,-7.79688 -1.59877,-2.01651 -2.90685,-3.79343 -2.90685,-3.94871 0,-0.34841 1.0743,-1.53884 10.72,-11.87876 8.14574,-8.73201 8.15858,-8.74776 7.479,-9.17824 -0.51217,-0.32445 -9.14722,-0.34654 -9.92749,-0.0254 -0.5265,0.21669 -2.10341,1.85231 -14.797806,15.34876 -3.677462,3.90981 -6.809462,7.10874 -6.96,7.10874 -0.150538,0 -0.273706,-4.93919 -0.273706,-10.97599 v -10.976 l -0.384,-0.384 -0.384,-0.384 h -4.032 -4.032 l -0.384,0.384 -0.384,0.384 v 23.08266 c 0,12.69547 0.09978,23.18245 0.221743,23.30441 0.121959,0.12196 2.245959,0.18196 4.72,0.13333 L 89.439998,252.96 Z M 175.52,235.03999 V 217.12 h -4.48 -4.48 l -0.0831,17.59999 c -0.0457,9.68 -0.0127,17.78409 0.0734,18.00908 l 0.15656,0.40907 4.40656,-0.0891 4.40657,-0.0891 z m 18.43366,7.84 c 0.10652,-5.544 0.33932,-10.5161 0.51733,-11.04911 1.0192,-3.05166 2.51985,-4.8257 5.01553,-5.92928 l 1.56653,-0.69272 h 2.31212 c 1.27166,0 2.47935,-0.10336 2.68376,-0.22968 l 0.37164,-0.22969 -0.0903,-3.97476 -0.0903,-3.97475 -1.88318,-0.0973 c -3.51188,-0.18138 -6.72304,0.92097 -9.30606,3.19463 L 193.6,221.17439 v -1.56604 c 0,-0.86132 -0.18152,-1.81426 -0.40336,-2.11766 l -0.40336,-0.55162 -3.99664,0.0905 -3.99664,0.0905 -0.0831,17.59999 c -0.0457,9.68 -0.0127,17.78409 0.0734,18.00908 l 0.15656,0.40907 4.40656,-0.0891 4.40657,-0.0891 z m 27.19468,-0.48 c 0.10513,-5.89456 0.3349,-10.99238 0.52008,-11.53869 2.54543,-7.50953 12.91578,-8.74222 15.99536,-1.90131 l 0.57621,1.28 0.16,11.36 0.16,11.36 h 4.48 4.48 l 0.085,-11.84 c 0.10495,-14.61358 -0.22933,-16.43762 -3.73581,-20.38475 -4.4929,-5.05751 -14.83371,-5.81998 -20.93808,-1.54386 l -1.83299,1.28401 -0.13787,-0.3977 c -0.0758,-0.21873 -0.17892,-0.97369 -0.22908,-1.67769 l -0.0912,-1.28 -4.13496,-0.09 -4.13495,-0.09 -0.26015,0.40997 c -0.30017,0.47305 -0.36995,34.49702 -0.0723,35.27259 l 0.19761,0.51496 4.36239,-0.0888 4.3624,-0.0888 z m -46.66372,-31.19328 c 3.21161,-2.20063 3.11184,-6.85661 -0.18836,-8.79066 -2.71053,-1.58847 -5.09651,-1.3398 -7.35459,0.76652 l -1.30632,1.21852 -0.12571,2.03945 -0.12571,2.03946 0.75565,1.11238 c 0.4156,0.61181 1.25622,1.45227 1.86803,1.86768 l 1.11239,0.7553 2.115,-0.1156 2.115,-0.1156 z m -53.6437,-26.44844 c 1.24809,-0.52551 11.78487,-4.54173 27.15908,-10.35201 4.576,-1.72937 13.288,-5.05317 19.36,-7.38621 6.072,-2.33303 12.48,-4.77929 14.24,-5.43613 1.76,-0.65684 3.73537,-1.42593 4.38972,-1.70909 1.63208,-0.70626 1.62946,-0.70733 2.45939,1.00517 0.40515,0.836 1.60719,3.032 2.6712,4.88 1.06401,1.848 3.18984,5.592 4.72406,8.32 4.87172,8.66241 5.13974,9.1121 5.67401,9.52 0.28817,0.22 0.90927,0.4 1.38023,0.4 h 0.85629 l 12.12255,-8.04315 c 15.65029,-10.38375 15.00785,-9.73499 12.48296,-12.60562 l -1.39959,-1.59123 -6.61523,-0.0984 -6.61523,-0.0984 -1.54015,-3.26156 c -8.59368,-18.19874 -10.50078,-21.37847 -11.67886,-19.47231 -0.0915,0.1481 -1.28803,0.52094 -2.65888,0.82854 -1.37086,0.30759 -8.25247,1.90697 -15.29247,3.55418 -7.04,1.6472 -17.552,4.097 -23.36,5.444 -17.29851,4.0119 -22.27954,5.19516 -22.36383,5.31264 -0.15599,0.2174 -5.62775,9.48792 -9.41502,15.95138 -4.96466,8.47283 -6.35604,10.81188 -7.82115,13.1481 -1.58327,2.52464 -1.38436,2.79556 1.24092,1.69017 z m 22.22011,-38.38884 c 2.71643,-0.63282 6.66697,-1.55181 8.77897,-2.0422 2.112,-0.49039 7.584,-1.77291 12.16,-2.85004 4.576,-1.07713 11.128,-2.61821 14.56,-3.42462 3.432,-0.80642 8.56745,-2.02312 11.41212,-2.7038 3.22706,-0.77217 5.57372,-1.17388 6.24,-1.06818 l 1.06788,0.1694 6.72,-1.64809 c 3.696,-0.90645 7.044,-1.85701 7.44,-2.11237 l 0.72,-0.46429 v -1.13041 -1.13042 l -2.87875,-5.70458 c -3.42862,-6.79422 -2.73767,-6.26483 -10.59526,-8.11793 -8.97822,-2.11738 -11.39276,-2.2155 -13.24599,-0.53831 -0.39541,0.35785 -2.41331,0.96237 -5.28,1.58178 -2.552,0.55141 -7.232,1.62672 -10.4,2.38957 -3.168,0.76285 -7.77239,1.856 -10.23197,2.42923 l -4.47198,1.04223 -0.93904,0.9968 c -0.91811,0.97457 -4.49062,6.33363 -10.91701,16.37641 -1.76,2.75042 -3.72822,5.81199 -4.37382,6.8035 -0.97525,1.4978 -1.2488,2.29689 -0.78627,2.29689 0.0452,0 2.30468,-0.51776 5.02112,-1.15057 z M 129.44,120.95929 c 4.87492,-1.16661 10.52104,-2.48768 19.36,-4.52983 7.53611,-1.74114 16.48365,-3.85298 24.41964,-5.76366 l 7.93965,-1.91156 0.44809,0.37189 0.44809,0.37188 7.45226,-1.82586 c 4.09875,-1.00423 7.77627,-2.0286 8.17227,-2.27639 l 0.72,-0.45052 v -0.90433 -0.90434 l -2,-2.74929 c -4.88445,-6.714386 -8.67157,-11.491836 -9.35738,-11.80431 l -0.74342,-0.338728 -1.87591,1.157878 c -1.03176,0.636833 -1.98929,1.157878 -2.12785,1.157878 -0.13856,0 -3.97667,-3.6 -8.52912,-8 -10.3308,-9.984833 -8.419,-10.315613 -16.64546,2.88 -0.93264,1.496 -2.58428,4.088 -3.67032,5.76 -1.08604,1.672 -2.75453,4.3 -3.70777,5.84 -2.11756,3.421032 -1.88248,3.423982 -6.38277,-0.08 -5.28593,-4.115676 -3.42318,-5.685442 -14.80927,12.480002 -1.93055,3.08 -4.35623,6.86864 -5.39041,8.41919 -1.98004,2.96871 -2.23739,3.81841 -1.32032,4.35928 0.65488,0.38624 0.8805,0.34886 7.6,-1.25918 z"
         id="path6" /><path
         style="fill:#068657"
         d="M 0,163.84 V 0 H 163.84 327.67999 V 163.84 327.67999 H 163.84 0 Z m 142.72151,89.41783 2.20785,-0.50217 1.94612,-1.25783 c 2.37039,-1.53206 2.18729,-1.54017 2.30612,0.10216 l 0.0984,1.36 4.07152,0.0895 4.07152,0.0895 0.19583,-0.78025 c 0.1077,-0.42913 0.13323,-6.08541 0.0567,-12.56949 l -0.13911,-11.78926 -0.47944,-1.6 c -3.00001,-10.01176 -16.97186,-13.29551 -29.08963,-6.83681 -2.47642,1.31992 -2.02001,5.26937 0.88782,7.68265 l 0.41784,0.34678 3.28346,-1.64921 3.28347,-1.64922 2.56827,-0.18899 c 5.87124,-0.43205 9.71688,1.88058 9.7447,5.86011 l 0.007,1.00531 -6,0.20813 c -10.51374,0.36471 -14.96298,2.18764 -17.0571,6.9886 l -0.72959,1.67265 -0.0143,2.56 -0.0143,2.56 0.68974,1.52025 c 0.37935,0.83613 1.42176,2.29425 2.31646,3.24027 l 1.62673,1.72002 1.86093,0.83514 c 3.2822,1.47296 8.00775,1.86354 11.8829,0.98216 z m -6.38278,-7.2356 c -0.7817,-0.40823 -1.7177,-1.14888 -2.08,-1.64589 l -0.65873,-0.90365 0.0302,-1.39654 c 0.0388,-1.79524 0.80342,-2.93711 2.47473,-3.69594 l 1.33506,-0.60616 5.52,-0.007 5.52,-0.007 -0.002,1.36 c -0.004,3.04164 -1.38465,5.37857 -3.96792,6.71618 l -1.31029,0.67846 -2.72,0.12492 -2.72,0.12491 z m -46.738732,0.9929 0.16,-5.94487 3.2,-3.40481 c 4.059131,-4.31893 2.965081,-4.88609 11.643762,6.03614 l 7.48376,9.4184 h 5.39624 5.39624 v -0.49889 c 0,-0.50135 -2.58717,-4.06212 -5.58782,-7.69062 -0.8867,-1.07223 -3.0761,-3.80823 -4.86533,-6.08 -1.78922,-2.27177 -4.56122,-5.78036 -6.16,-7.79688 -1.59877,-2.01651 -2.90685,-3.79343 -2.90685,-3.94871 0,-0.34841 1.0743,-1.53884 10.72,-11.87876 8.14574,-8.73201 8.15858,-8.74776 7.479,-9.17824 -0.51217,-0.32445 -9.14722,-0.34654 -9.92749,-0.0254 -0.5265,0.21669 -2.10341,1.85231 -14.797806,15.34876 -3.677462,3.90981 -6.809462,7.10874 -6.96,7.10874 -0.150538,0 -0.273706,-4.93919 -0.273706,-10.97599 v -10.976 l -0.384,-0.384 -0.384,-0.384 h -4.032 -4.032 l -0.384,0.384 -0.384,0.384 v 23.08266 c 0,12.69547 0.09978,23.18245 0.221743,23.30441 0.121959,0.12196 2.245959,0.18196 4.72,0.13333 L 89.439998,252.96 Z M 175.52,235.03999 V 217.12 h -4.48 -4.48 l -0.0831,17.59999 c -0.0457,9.68 -0.0127,17.78409 0.0734,18.00908 l 0.15656,0.40907 4.40656,-0.0891 4.40657,-0.0891 z m 18.43366,7.84 c 0.10652,-5.544 0.33932,-10.5161 0.51733,-11.04911 1.0192,-3.05166 2.51985,-4.8257 5.01553,-5.92928 l 1.56653,-0.69272 h 2.31212 c 1.27166,0 2.47935,-0.10336 2.68376,-0.22968 l 0.37164,-0.22969 -0.0903,-3.97476 -0.0903,-3.97475 -1.88318,-0.0973 c -3.51188,-0.18138 -6.72304,0.92097 -9.30606,3.19463 L 193.6,221.17439 v -1.56604 c 0,-0.86132 -0.18152,-1.81426 -0.40336,-2.11766 l -0.40336,-0.55162 -3.99664,0.0905 -3.99664,0.0905 -0.0831,17.59999 c -0.0457,9.68 -0.0127,17.78409 0.0734,18.00908 l 0.15656,0.40907 4.40656,-0.0891 4.40657,-0.0891 z m 27.19468,-0.48 c 0.10513,-5.89456 0.3349,-10.99238 0.52008,-11.53869 2.54543,-7.50953 12.91578,-8.74222 15.99536,-1.90131 l 0.57621,1.28 0.16,11.36 0.16,11.36 h 4.48 4.48 l 0.085,-11.84 c 0.10495,-14.61358 -0.22933,-16.43762 -3.73581,-20.38475 -4.4929,-5.05751 -14.83371,-5.81998 -20.93808,-1.54386 l -1.83299,1.28401 -0.13787,-0.3977 c -0.0758,-0.21873 -0.17892,-0.97369 -0.22908,-1.67769 l -0.0912,-1.28 -4.13496,-0.09 -4.13495,-0.09 -0.26015,0.40997 c -0.30017,0.47305 -0.36995,34.49702 -0.0723,35.27259 l 0.19761,0.51496 4.36239,-0.0888 4.3624,-0.0888 z m -46.66372,-31.19328 c 3.21161,-2.20063 3.11184,-6.85661 -0.18836,-8.79066 -2.71053,-1.58847 -5.09651,-1.3398 -7.35459,0.76652 l -1.30632,1.21852 -0.12571,2.03945 -0.12571,2.03946 0.75565,1.11238 c 0.4156,0.61181 1.25622,1.45227 1.86803,1.86768 l 1.11239,0.7553 2.115,-0.1156 2.115,-0.1156 z m -47.06128,-28.35867 c 16.94048,-6.4274 24.28237,-9.21164 29.85666,-11.32242 3.168,-1.19961 9.36,-3.5741 13.76,-5.27664 4.4,-1.70255 9.17413,-3.51624 10.60919,-4.03043 1.43506,-0.51419 3.28299,-1.22371 4.10653,-1.57672 2.01588,-0.86411 2.19675,-0.82877 2.85699,0.55817 0.31418,0.66 1.4422,2.712 2.5067,4.56 1.06451,1.848 3.19074,5.592 4.72496,8.32 4.87172,8.66241 5.13974,9.1121 5.67401,9.52 0.28817,0.22 0.90927,0.4 1.38023,0.4 h 0.85629 l 12.12255,-8.04315 c 15.65029,-10.38375 15.00785,-9.73499 12.48296,-12.60562 l -1.39959,-1.59123 -6.61523,-0.0984 -6.61523,-0.0984 -1.54092,-3.26156 c -3.84539,-8.13932 -9.34489,-19.05263 -9.78531,-19.41814 l -0.48511,-0.4026 -1.67951,0.1781 c -1.8223,0.19325 -2.14284,0.26497 -21.51951,4.81491 -7.216,1.69442 -17.512,4.10108 -22.88,5.34812 -5.368,1.24704 -11.53504,2.68825 -13.70452,3.20269 -5.62217,1.33316 -5.35909,1.37926 -16.53548,-2.89723 -1.936,-0.74079 -4.04322,-1.50278 -4.68271,-1.69331 l -1.1627,-0.34642 -4.1173,1.9526 c -2.26451,1.07393 -5.21094,2.4475 -6.54762,3.05238 l -2.43033,1.09978 -0.8015,1.08378 c -0.44083,0.59607 -1.28059,1.94777 -1.86615,3.00377 -0.58555,1.056 -1.58906,2.712 -2.23003,3.68 -1.890833,2.8556 -3.521662,5.972 -3.521662,6.72965 v 0.70567 l 2.137652,1.96234 c 1.17571,1.07928 3.5932,3.33034 5.3722,5.00234 9.38765,8.82303 11.47291,10.56 12.67749,10.56 0.49463,0 4.54283,-1.38239 8.996,-3.07196 z m -10.17602,2.02062 c -0.72269,-0.41757 -2.5077,-2.01642 -12.16249,-10.89404 l -6.204832,-5.70538 v -0.70237 c 0,-0.72113 0.977631,-2.50418 5.218392,-9.51757 2.80166,-4.63342 2.60802,-4.4317 5.34161,-5.56424 1.144,-0.47396 3.93708,-1.73712 6.20685,-2.80701 l 4.12686,-1.94526 1.15314,0.34686 c 0.63423,0.19077 2.59315,0.8791 4.35315,1.52963 1.76,0.65053 4.28,1.58201 5.6,2.06995 1.32,0.48795 3.0301,1.11973 3.80023,1.40397 0.77013,0.28424 1.70613,0.519 2.08,0.5217 0.38007,0.003 0.53258,0.10855 0.34592,0.24 -0.33905,0.23875 -2.76735,4.26924 -9.685,16.0751 -6.81908,11.63764 -9.08823,15.36644 -9.34038,15.34866 -0.0884,-0.006 -0.46348,-0.18624 -0.83345,-0.4 z M 141.28,147.33513 c 1.232,-0.27859 4.616,-1.0652 7.52,-1.74801 10.70105,-2.51611 12.13871,-2.85275 19.04,-4.45837 3.872,-0.90084 9.992,-2.34029 13.6,-3.19878 13.08825,-3.11421 14.90855,-3.52997 15.45502,-3.52997 1.08304,0 13.83607,-3.25334 14.54498,-3.71047 l 0.72,-0.46429 v -1.13041 -1.13042 l -2.87875,-5.70458 c -3.43194,-6.80081 -2.72273,-6.26129 -10.70541,-8.14398 -8.12387,-1.91599 -8.53771,-1.96545 -11.05584,-1.3214 -2.11157,0.54006 -5.87858,1.43675 -18.24,4.34182 -3.784,0.88928 -8.896,2.13063 -11.36,2.75855 -2.464,0.62792 -5.992,1.489 -7.84,1.91351 -1.848,0.42451 -6.312,1.47527 -9.92,2.33501 -13.05185,3.1101 -16.40778,3.88921 -19.43628,4.51235 -4.04552,0.8324 -4.59844,1.2012 -7.17775,4.78769 -3.06126,4.25662 -2.89767,4.9986 1.40292,6.36312 1.93552,0.61412 14.24313,5.10185 20.25111,7.38418 1.99487,0.75782 3.23708,0.78733 6.08,0.14445 z m -12.15063,-25.70469 c 2.81085,-0.68726 5.61463,-1.3453 6.23063,-1.46231 0.616,-0.11702 4.648,-1.05143 8.96,-2.07647 4.312,-1.02504 11.08,-2.61634 15.04,-3.53621 3.96,-0.91987 10.44511,-2.44716 14.41137,-3.39397 3.96625,-0.94682 7.49425,-1.72013 7.84,-1.71847 1.09541,0.005 15.31658,-3.57667 16.06863,-4.04725 l 0.72,-0.45052 v -0.90433 -0.90434 l -2,-2.74929 c -4.88445,-6.714386 -8.67157,-11.491836 -9.35738,-11.80431 l -0.74342,-0.338728 -1.87591,1.157878 c -1.03176,0.636833 -1.98929,1.157878 -2.12785,1.157878 -0.13856,0 -3.98622,-3.609235 -8.55036,-8.020523 l -8.29842,-8.020523 -1.04333,0.100523 -1.04333,0.100523 -1.16957,1.76 c -1.34577,2.025156 -7.37657,11.489837 -11.57136,18.16 -3.39669,5.401092 -2.58041,5.210825 -7.20749,1.68 -5.14119,-3.923135 -4.7584,-4.064561 -9.52757,3.52 -7.52282,11.963782 -10.66365,16.934672 -11.91,18.849612 -2.86725,4.40532 -1.36297,5.02358 7.15536,2.94083 z"
         id="path5" /><path
         style="fill:#2c3942"
         d="M 0,163.84 V 0 H 163.84 327.67999 V 163.84 327.67999 H 163.84 0 Z m 142.72151,89.41783 2.20785,-0.50217 1.94612,-1.25783 c 2.37039,-1.53206 2.18729,-1.54017 2.30612,0.10216 l 0.0984,1.36 4.07152,0.0895 4.07152,0.0895 0.19583,-0.78025 c 0.1077,-0.42913 0.13323,-6.08541 0.0567,-12.56949 l -0.13911,-11.78926 -0.47944,-1.6 c -3.00001,-10.01176 -16.97186,-13.29551 -29.08963,-6.83681 -2.47642,1.31992 -2.02001,5.26937 0.88782,7.68265 l 0.41784,0.34678 3.28346,-1.64921 3.28347,-1.64922 2.56827,-0.18899 c 5.87124,-0.43205 9.71688,1.88058 9.7447,5.86011 l 0.007,1.00531 -6,0.20813 c -10.51374,0.36471 -14.96298,2.18764 -17.0571,6.9886 l -0.72959,1.67265 -0.0143,2.56 -0.0143,2.56 0.68974,1.52025 c 0.37935,0.83613 1.42176,2.29425 2.31646,3.24027 l 1.62673,1.72002 1.86093,0.83514 c 3.2822,1.47296 8.00775,1.86354 11.8829,0.98216 z m -6.38278,-7.2356 c -0.7817,-0.40823 -1.7177,-1.14888 -2.08,-1.64589 l -0.65873,-0.90365 0.0302,-1.39654 c 0.0388,-1.79524 0.80342,-2.93711 2.47473,-3.69594 l 1.33506,-0.60616 5.52,-0.007 5.52,-0.007 -0.002,1.36 c -0.004,3.04164 -1.38465,5.37857 -3.96792,6.71618 l -1.31029,0.67846 -2.72,0.12492 -2.72,0.12491 z m -46.738732,0.9929 0.16,-5.94487 3.2,-3.40481 c 4.059131,-4.31893 2.965081,-4.88609 11.643762,6.03614 l 7.48376,9.4184 h 5.39624 5.39624 v -0.49889 c 0,-0.50135 -2.58717,-4.06212 -5.58782,-7.69062 -0.8867,-1.07223 -3.0761,-3.80823 -4.86533,-6.08 -1.78922,-2.27177 -4.56122,-5.78036 -6.16,-7.79688 -1.59877,-2.01651 -2.90685,-3.79343 -2.90685,-3.94871 0,-0.34841 1.0743,-1.53884 10.72,-11.87876 8.14574,-8.73201 8.15858,-8.74776 7.479,-9.17824 -0.51217,-0.32445 -9.14722,-0.34654 -9.92749,-0.0254 -0.5265,0.21669 -2.10341,1.85231 -14.797806,15.34876 -3.677462,3.90981 -6.809462,7.10874 -6.96,7.10874 -0.150538,0 -0.273706,-4.93919 -0.273706,-10.97599 v -10.976 l -0.384,-0.384 -0.384,-0.384 h -4.032 -4.032 l -0.384,0.384 -0.384,0.384 v 23.08266 c 0,12.69547 0.09978,23.18245 0.221743,23.30441 0.121959,0.12196 2.245959,0.18196 4.72,0.13333 L 89.439998,252.96 Z M 175.52,235.03999 V 217.12 h -4.48 -4.48 l -0.0831,17.59999 c -0.0457,9.68 -0.0127,17.78409 0.0734,18.00908 l 0.15656,0.40907 4.40656,-0.0891 4.40657,-0.0891 z m 18.43366,7.84 c 0.10652,-5.544 0.33932,-10.5161 0.51733,-11.04911 1.0192,-3.05166 2.51985,-4.8257 5.01553,-5.92928 l 1.56653,-0.69272 h 2.31212 c 1.27166,0 2.47935,-0.10336 2.68376,-0.22968 l 0.37164,-0.22969 -0.0903,-3.97476 -0.0903,-3.97475 -1.88318,-0.0973 c -3.51188,-0.18138 -6.72304,0.92097 -9.30606,3.19463 L 193.6,221.17439 v -1.56604 c 0,-0.86132 -0.18152,-1.81426 -0.40336,-2.11766 l -0.40336,-0.55162 -3.99664,0.0905 -3.99664,0.0905 -0.0831,17.59999 c -0.0457,9.68 -0.0127,17.78409 0.0734,18.00908 l 0.15656,0.40907 4.40656,-0.0891 4.40657,-0.0891 z m 27.19468,-0.48 c 0.10513,-5.89456 0.3349,-10.99238 0.52008,-11.53869 2.54543,-7.50953 12.91578,-8.74222 15.99536,-1.90131 l 0.57621,1.28 0.16,11.36 0.16,11.36 h 4.48 4.48 l 0.085,-11.84 c 0.10495,-14.61358 -0.22933,-16.43762 -3.73581,-20.38475 -4.4929,-5.05751 -14.83371,-5.81998 -20.93808,-1.54386 l -1.83299,1.28401 -0.13787,-0.3977 c -0.0758,-0.21873 -0.17892,-0.97369 -0.22908,-1.67769 l -0.0912,-1.28 -4.13496,-0.09 -4.13495,-0.09 -0.26015,0.40997 c -0.30017,0.47305 -0.36995,34.49702 -0.0723,35.27259 l 0.19761,0.51496 4.36239,-0.0888 4.3624,-0.0888 z m -46.66372,-31.19328 c 3.21161,-2.20063 3.11184,-6.85661 -0.18836,-8.79066 -2.71053,-1.58847 -5.09651,-1.3398 -7.35459,0.76652 l -1.30632,1.21852 -0.12571,2.03945 -0.12571,2.03946 0.75565,1.11238 c 0.4156,0.61181 1.25622,1.45227 1.86803,1.86768 l 1.11239,0.7553 2.115,-0.1156 2.115,-0.1156 z m -47.06128,-28.35867 c 16.94048,-6.4274 24.28237,-9.21164 29.85666,-11.32242 3.168,-1.19961 9.36,-3.5741 13.76,-5.27664 4.4,-1.70255 9.17413,-3.51624 10.60919,-4.03043 1.43506,-0.51419 3.28299,-1.22371 4.10653,-1.57672 2.01588,-0.86411 2.19675,-0.82877 2.85699,0.55817 0.31418,0.66 1.4422,2.712 2.5067,4.56 1.06451,1.848 3.19074,5.592 4.72496,8.32 4.87172,8.66241 5.13974,9.1121 5.67401,9.52 0.28817,0.22 0.90927,0.4 1.38023,0.4 h 0.85629 l 12.12255,-8.04315 c 15.65029,-10.38375 15.00785,-9.73499 12.48296,-12.60562 l -1.39959,-1.59123 -6.61523,-0.0984 -6.61523,-0.0984 -1.54092,-3.26156 c -3.84539,-8.13932 -9.34489,-19.05263 -9.78531,-19.41814 l -0.48511,-0.4026 -1.67951,0.1781 c -1.8223,0.19325 -2.14284,0.26497 -21.51951,4.81491 -7.216,1.69442 -17.512,4.10108 -22.88,5.34812 -5.368,1.24704 -11.53504,2.68825 -13.70452,3.20269 -5.62217,1.33316 -5.35909,1.37926 -16.53548,-2.89723 -1.936,-0.74079 -4.04322,-1.50278 -4.68271,-1.69331 l -1.1627,-0.34642 -4.1173,1.9526 c -2.26451,1.07393 -5.21094,2.4475 -6.54762,3.05238 l -2.43033,1.09978 -0.8015,1.08378 c -0.44083,0.59607 -1.28059,1.94777 -1.86615,3.00377 -0.58555,1.056 -1.58906,2.712 -2.23003,3.68 -1.890833,2.8556 -3.521662,5.972 -3.521662,6.72965 v 0.70567 l 2.137652,1.96234 c 1.17571,1.07928 3.5932,3.33034 5.3722,5.00234 9.38765,8.82303 11.47291,10.56 12.67749,10.56 0.49463,0 4.54283,-1.38239 8.996,-3.07196 z M 141.28,147.33513 c 1.232,-0.27859 4.616,-1.0652 7.52,-1.74801 10.70105,-2.51611 12.13871,-2.85275 19.04,-4.45837 3.872,-0.90084 9.992,-2.34029 13.6,-3.19878 13.08825,-3.11421 14.90855,-3.52997 15.45502,-3.52997 1.08304,0 13.83607,-3.25334 14.54498,-3.71047 l 0.72,-0.46429 v -1.13041 -1.13042 l -2.87875,-5.70458 c -3.43194,-6.80081 -2.72273,-6.26129 -10.70541,-8.14398 -8.12387,-1.91599 -8.53771,-1.96545 -11.05584,-1.3214 -2.11157,0.54006 -5.87858,1.43675 -18.24,4.34182 -3.784,0.88928 -8.896,2.13063 -11.36,2.75855 -2.464,0.62792 -5.992,1.489 -7.84,1.91351 -1.848,0.42451 -6.312,1.47527 -9.92,2.33501 -13.05185,3.1101 -16.40778,3.88921 -19.43628,4.51235 -4.04552,0.8324 -4.59844,1.2012 -7.17775,4.78769 -3.06126,4.25662 -2.89767,4.9986 1.40292,6.36312 1.93552,0.61412 14.24313,5.10185 20.25111,7.38418 1.99487,0.75782 3.23708,0.78733 6.08,0.14445 z m -12.15063,-25.70469 c 2.81085,-0.68726 5.61463,-1.3453 6.23063,-1.46231 0.616,-0.11702 4.648,-1.05143 8.96,-2.07647 4.312,-1.02504 11.08,-2.61634 15.04,-3.53621 3.96,-0.91987 10.44511,-2.44716 14.41137,-3.39397 3.96625,-0.94682 7.49425,-1.72013 7.84,-1.71847 1.09541,0.005 15.31658,-3.57667 16.06863,-4.04725 l 0.72,-0.45052 v -0.90433 -0.90434 l -2,-2.74929 c -4.88445,-6.714386 -8.67157,-11.491836 -9.35738,-11.80431 l -0.74342,-0.338728 -1.87591,1.157878 c -1.03176,0.636833 -1.98929,1.157878 -2.12785,1.157878 -0.13856,0 -3.98622,-3.609235 -8.55036,-8.020523 l -8.29842,-8.020523 -1.04333,0.100523 -1.04333,0.100523 -1.16957,1.76 c -1.34577,2.025156 -7.37657,11.489837 -11.57136,18.16 -3.39669,5.401092 -2.58041,5.210825 -7.20749,1.68 -5.14119,-3.923135 -4.7584,-4.064561 -9.52757,3.52 -7.52282,11.963782 -10.66365,16.934672 -11.91,18.849612 -2.86725,4.40532 -1.36297,5.02358 7.15536,2.94083 z"
         id="path4" /><path
         style="fill:#25323c"
         d="M 0,163.84057 V 0.00114606 l 163.84229,9.786e-5 163.84229,9.786e-5 -0.3728,0.59694009 c -0.21485,0.34402997 -0.26746,0.85215883 -0.12417,1.19932913 0.31962,0.7744331 0.34644,2.4618734 0.0468,2.946651 -0.13234,0.2141362 -0.0521,0.3778454 0.18667,0.380638 l 0.41888,0.0049 -0.48,0.3101998 -0.48,0.3101998 0.41889,0.0049 c 0.23039,0.0027 0.34521,0.1241092 0.25516,0.2698093 -0.14332,0.231892 -0.26356,9.4448421 -0.20746,15.8950911 0.0107,1.231999 -0.0456,2.563999 -0.12518,2.959999 -0.0796,0.396 -0.002,0.72 0.17287,0.72 0.19009,0 0.20833,0.195118 0.0454,0.486185 -0.14964,0.267401 -0.18548,1.272961 -0.0796,2.234578 l 0.19244,1.748394 -0.33626,0.113383 -0.33627,0.113383 0.39723,0.481481 c 0.21847,0.264815 0.32441,0.554292 0.23542,0.643281 -0.089,0.08899 -0.14825,1.22774 -0.13168,2.530557 0.0333,2.617295 0.0347,3.456975 0.0104,6.048758 -0.009,0.968 0.0161,3.884069 0.0561,6.480153 0.0399,2.596085 -0.053,4.720085 -0.20659,4.72 -0.15355,-8.4e-5 -0.13871,0.179847 0.033,0.399847 0.33569,0.430155 0.29355,3.260262 -0.0615,4.127632 -0.11878,0.290197 -0.0771,0.613441 0.0926,0.71832 0.32237,0.199233 0.24699,6.66466 -0.0839,7.200116 -0.10205,0.165124 -0.046,0.667211 0.12452,1.11575 l 0.31006,0.815525 -0.32331,0.199817 -0.32331,0.199817 0.37472,0.451511 0.37472,0.451512 -0.35641,0.429442 c -0.19602,0.236194 -0.27203,0.51382 -0.1689,0.616948 0.35032,0.350322 0.34753,2.312451 -0.004,2.548709 -0.20496,0.137896 -0.21713,0.237282 -0.0294,0.240376 0.37276,0.0061 0.41397,3.814716 0.0477,4.407373 -0.13499,0.218433 -0.10173,0.397151 0.0739,0.397151 h 0.31937 l -0.0605,5.437872 c -0.0333,2.990829 -0.17698,5.438829 -0.31936,5.44 -0.14239,0.0012 -0.16307,0.157165 -0.046,0.346655 0.29457,0.476623 0.30313,7.007822 0.0104,7.910829 -0.13116,0.404562 -0.0941,0.909221 0.0824,1.121859 0.20097,0.242159 0.22629,1.162609 0.0678,2.464644 -0.13913,1.142977 -0.19245,2.183933 -0.11848,2.313223 0.28731,0.50226 0.34366,4.41605 0.0661,4.58762 -0.16154,0.0998 -0.19078,0.34806 -0.065,0.5516 0.32378,0.52388 0.34349,5.46709 0.0227,5.69225 -0.14618,0.1026 -0.1217,0.5655 0.0544,1.02867 l 0.32018,0.84212 -0.30864,0.19075 -0.30864,0.19075 0.30589,0.57156 0.30589,0.57155 -0.36902,0.36902 -0.36903,0.36903 h 0.35319 0.35319 l -0.14559,2.48 c -0.21244,3.61884 -0.21276,3.63132 -0.12969,5.2 0.0419,0.792 0.0555,1.512 0.0302,1.6 -0.15102,0.5252 -0.14088,6.16122 0.0113,6.25523 0.10153,0.0627 0.0979,0.80497 -0.008,1.64941 -0.10599,0.84445 -0.1461,2.32736 -0.0891,3.29536 0.15121,2.56968 0.15818,3.08155 0.0828,6.08 -0.0376,1.496 -0.0655,4.592 -0.0619,6.88 0.004,2.288 -0.0227,5.48033 -0.0584,7.09407 -0.0386,1.74629 0.0557,2.85954 0.23304,2.74996 0.17549,-0.10846 0.20191,0.13231 0.0643,0.58593 -0.30927,1.01954 -0.3139,1.17835 -0.0812,2.78434 l 0.19914,1.37431 -0.39259,-0.23573 -0.39259,-0.23574 0.34764,0.46143 0.34763,0.46143 -0.0892,4.8 c -0.0491,2.64 -0.11284,5.68895 -0.14169,6.77546 -0.0288,1.0865 0.0434,2.1305 0.16049,2.32 0.11711,0.18949 0.11196,0.50792 -0.0115,0.7076 -0.26845,0.43436 -0.2707,3.13243 -0.004,4.91694 0.10518,0.704 0.0763,1.928 -0.0641,2.72 -0.15415,0.86931 -0.12429,1.79445 0.0753,2.33439 l 0.33068,0.8944 -0.47559,0.3007 c -0.26157,0.16539 -0.33159,0.30287 -0.15559,0.30553 0.30669,0.005 0.41776,4.97389 0.11787,5.27377 -0.11386,0.11387 -0.0565,7.00526 0.0627,7.53121 0.14592,0.6439 0.0322,11.57398 -0.12206,11.72821 -0.10777,0.10776 -0.0503,0.46798 0.1276,0.80047 0.17795,0.3325 0.2344,0.74877 0.12545,0.92506 -0.25021,0.40484 -0.27672,4.80452 -0.0403,6.69169 0.10274,0.82015 0.0325,1.60148 -0.1655,1.84 -0.18923,0.22801 -0.21842,0.41455 -0.0649,0.41454 0.15355,-1e-5 0.23419,1.47599 0.17919,3.28 -0.12726,4.17444 -0.12671,9.92147 10e-4,11.68017 0.0544,0.74807 -0.0176,1.36007 -0.16002,1.36 -0.14239,-8e-5 -0.17167,0.14098 -0.0651,0.31346 0.28214,0.45651 0.32267,18.05069 0.0426,18.50381 -0.13005,0.21042 -0.0883,0.38258 0.0929,0.38258 0.41543,0 0.2997,2.31827 -0.13155,2.6351 l -0.32,0.2351 0.3663,0.005 0.3663,0.005 -0.27866,1.2 c -0.35149,1.51359 -0.37089,2.72533 -0.0404,2.52106 0.13946,-0.0862 0.27451,0.12131 0.30011,0.46111 0.0256,0.33981 -0.0885,0.61783 -0.25357,0.61783 -0.35874,0 -0.40555,0.86077 -0.0551,1.01334 0.13475,0.0587 0.17075,1.36683 0.08,2.90703 -0.0908,1.5402 -0.041,2.8002 0.11061,2.8 0.15158,-2e-4 0.17028,0.53963 0.0415,1.19963 -0.31434,1.61156 -0.39861,5.2 -0.12212,5.2 0.1217,0 0.1589,0.54 0.0827,1.2 -0.31488,2.72626 -0.32525,3.12756 -0.085,3.28788 0.13839,0.0923 0.14026,0.98854 0.004,1.99157 -0.15275,1.12563 -0.12837,1.86339 0.0637,1.92742 l 0.31118,0.10373 -0.30657,0.6247 c -0.16861,0.34359 -0.26647,1.4167 -0.21747,2.3847 0.11543,2.28034 0.12477,5.27911 0.0213,6.82006 -0.0451,0.67103 0.0195,1.38415 0.14341,1.58472 0.12395,0.20057 0.14618,0.49281 0.0494,0.64942 -0.27549,0.44575 -0.29065,3.74626 -0.0172,3.74602 0.13451,-1.2e-4 0.15391,0.46778 0.0431,1.03978 -0.18218,0.94054 -0.21313,2.50241 -0.10304,5.2 0.0215,0.528 0.003,1.608 -0.0407,2.4 -0.0439,0.792 0.0291,1.78204 0.16236,2.20008 l 0.24224,0.76007 -0.38621,-0.23869 -0.38621,-0.23869 0.3104,0.59862 c 0.17072,0.32924 0.26064,1.10261 0.19981,1.71861 -0.0608,0.616 -0.098,1.48 -0.0826,1.92 0.0154,0.44 0.0148,1.088 -10e-4,1.44 -0.0162,0.352 -0.0269,1.22839 -0.0239,1.94753 0.003,0.71915 -0.13726,1.683 -0.31174,2.14191 l -0.31723,0.83438 -0.9748,-0.27957 c -0.54631,-0.15668 -1.39488,-0.15909 -1.93048,-0.005 -0.57157,0.16392 -1.03062,0.15284 -1.14211,-0.0276 -0.10254,-0.16591 -0.32309,-0.21719 -0.49012,-0.11396 -0.2584,0.1597 -9.60407,0.26552 -10.41294,0.11791 -0.15353,-0.028 -0.42315,-0.0221 -0.59915,0.0132 -0.176,0.0353 -0.968,0.0588 -1.76,0.0523 -0.792,-0.007 -4.032,-0.015 -7.2,-0.0189 -3.168,-0.004 -10.656,-0.0171 -16.64,-0.0295 -5.984,-0.0124 -11.168,-0.0177 -11.52,-0.0116 -0.352,0.006 -22.528,0.0163 -49.28,0.0228 -26.75199,0.007 -50.65599,0.0183 -53.11999,0.0263 -7.24475,0.0233 -86.784651,0.0203 -89.760002,-0.003 -1.496,-0.0119 -9.128,-0.0149 -16.959999,-0.007 -7.832,0.008 -15.608,0.004 -17.28,-0.0104 -1.672,-0.014 -12.070715,0.007 -23.108256,0.0478 -11.037541,0.0403 -20.1546503,-0.0132 -20.2602438,-0.11878 -0.1055935,-0.10559 -0.5788782,-0.0873 -1.0517437,0.0406 -0.4728656,0.12791 -1.3267401,0.12842 -1.897499,0.001 -0.59105007,-0.13183 -0.96171409,-0.10844 -0.86111454,0.0543 0.0971459,0.15719 0.0241305,0.28579 -0.16225653,0.28579 H 0 Z m 119.51666,89.64562 3.51666,-0.2062 0.1033,-0.54179 c 0.12237,-0.64186 -3.05124,-5.31391 -4.8488,-7.13821 -0.69368,-0.704 -1.77835,-2.072 -2.41036,-3.04 -0.63202,-0.968 -2.06131,-2.768 -3.1762,-4 -1.11489,-1.232 -2.55677,-3.0732 -3.20417,-4.09156 -0.6474,-1.01837 -1.96909,-2.68914 -2.93709,-3.71284 -0.968,-1.02369 -2.0235,-2.32016 -2.34555,-2.88104 l -0.58554,-1.01978 3.62554,-3.7888 c 1.99405,-2.08384 5.71355,-6.05638 8.26555,-8.82786 2.552,-2.77149 5.108,-5.53925 5.68,-6.15059 2.17529,-2.32489 1.84027,-2.49154 -5.00401,-2.48927 l -5.24401,0.002 -1.29567,1.6 c -0.71262,0.88 -2.68778,2.968 -4.38924,4.64 -1.70146,1.672 -4.08153,4.192 -5.289046,5.6 -1.207517,1.408 -2.897121,3.208 -3.754675,4 -0.857555,0.792 -2.590627,2.65221 -3.851271,4.1338 l -2.29208,2.6938 -0.16,-11.3338 -0.16,-11.3338 -4.96,0.0197 -4.96,0.0197 v 23.82026 23.82025 h 4.96 4.96 l 0.08701,-5.98635 0.08701,-5.98635 3.03299,-3.08269 c 1.668144,-1.69549 3.032989,-3.21363 3.032989,-3.37365 0,-0.85847 1.130642,-0.056 2.323145,1.64886 0.74627,1.0669 2.281188,2.9749 3.410928,4.24 1.12974,1.2651 2.64174,3.18271 3.36,4.26135 0.71826,1.07864 2.31694,3.09464 3.55261,4.48 1.23568,1.38536 2.45968,2.81478 2.72,3.17649 0.59958,0.83308 2.42537,1.43359 3.67332,1.20816 0.528,-0.0954 2.5425,-0.26621 4.47666,-0.37962 z m 24.19735,-0.0324 c 0.63471,-0.18616 2.03083,-0.90519 3.1025,-1.59784 l 1.94848,-1.25936 0.0975,1.34171 0.0975,1.3417 4.13012,0.16 4.13012,0.16 0.46433,-0.34089 0.46432,-0.3409 -0.16384,-12.2991 -0.16384,-12.29911 -0.45243,-2.08 c -1.31211,-6.03224 -6.53395,-9.57624 -14.86288,-10.08727 l -3.57409,-0.21929 -2.34591,0.38003 c -2.77684,0.44984 -8.25027,2.35764 -9.9459,3.4667 l -1.2,0.78488 v 0.89859 c 0,0.49423 0.12804,0.97773 0.28455,1.07446 0.1565,0.0967 0.37781,0.54742 0.49179,1.00156 1.02058,4.06632 2.63036,4.71277 6.59382,2.64795 l 3.17181,-1.6524 2.4996,-0.1447 c 3.11205,-0.18015 5.86784,0.3663 7.10745,1.40936 l 0.94262,0.79317 -0.004,0.86348 c -0.002,0.47492 0.0402,1.21956 0.0942,1.65476 l 0.0981,0.79128 -0.96,0.21086 -0.96,0.21086 1.28,0.0849 1.28,0.0849 -1.92,0.23822 c -1.056,0.13102 -3.80187,0.25385 -6.10192,0.27295 l -4.18192,0.0347 -1.73808,0.51084 c -2.62583,0.77174 -5.7906,2.5479 -7.23185,4.05872 l -1.28827,1.35044 -0.35423,1.76 c -0.19483,0.968 -0.51666,2.88874 -0.71518,4.2683 l -0.36093,2.50829 0.50988,0.53171 c 0.28043,0.29244 1.13758,1.40679 1.90477,2.47634 0.76719,1.06955 2.02553,2.45791 2.79631,3.08524 l 1.40142,1.14061 2.4,0.50518 c 1.32,0.27785 2.76,0.5714 3.2,0.65232 1.27296,0.23413 6.76786,-0.0628 8.03401,-0.4342 z M 136.8,245.79518 c -0.704,-0.32492 -1.63438,-0.97537 -2.0675,-1.44545 l -0.7875,-0.85469 0.0535,-1.34246 c 0.071,-1.78081 0.62185,-2.72885 1.99106,-3.42682 l 1.13041,-0.57624 5.44,-0.11476 5.44,-0.11477 0.10463,1.09851 c 0.38144,4.00439 -3.22391,7.38946 -7.85436,7.37447 l -2.17027,-0.007 z m 57.49686,-2.85098 0.10314,-10.46421 0.78053,-1.58608 c 1.07037,-2.17504 2.78102,-3.98956 4.49947,-4.77268 l 1.44,-0.65623 2.80865,0.0459 2.80865,0.0459 -0.0887,-4.53838 -0.0887,-4.53837 -2.72,0.0167 c -1.496,0.009 -3.48975,0.20688 -4.43055,0.43925 l -1.71054,0.42249 -1.87544,1.56076 c -2.31222,1.92425 -2.22347,1.93261 -2.22347,-0.20929 v -1.77004 l -0.4,-0.13717 c -0.22,-0.0754 -2.30821,-0.17893 -4.64046,-0.22996 l -4.24045,-0.0928 4.5e-4,18.42666 c 2.5e-4,10.13467 0.06,18.48667 0.13284,18.56 0.0728,0.0733 2.29439,0.0902 4.93686,0.0375 l 4.80447,-0.0958 z m -18.37426,-7.92014 -0.0826,-18.41594 -4.8802,-0.0641 c -2.68411,-0.0352 -4.91611,0.0437 -4.96,0.17534 -0.0439,0.13167 -0.0415,8.44767 0.005,18.48 l 0.0852,18.24059 h 4.95742 4.95742 z m 45.51764,7.37593 0.16025,-10.88 0.57281,-1.27033 c 3.06599,-6.79948 12.43795,-7.29292 15.37841,-0.80967 l 0.36284,0.8 0.16272,11.52 0.16272,11.52 h 4.8 4.8 v -13.12 -13.12 l -1.5286,-3.04 c -2.42049,-4.81373 -4.05998,-6.06569 -9.90642,-7.56479 l -2.00498,-0.5141 -2.72,0.20725 c -3.95599,0.30144 -5.97648,0.87785 -8.31999,2.37355 l -2.08,1.32752 -0.0967,-1.59471 -0.0967,-1.59471 H 216.30327 211.52 v 18.18666 c 0,10.00267 0.0997,18.28636 0.22153,18.4082 0.12185,0.12185 2.31785,0.18185 4.88,0.13334 L 221.28,253.28 Z m -47.16927,-30.72123 c 0.75196,-0.44068 1.6754,-1.23405 2.05208,-1.76305 l 0.68487,-0.96181 0.012,-2.07825 0.012,-2.07826 -0.52749,-0.80505 c -2.20456,-3.36458 -6.72441,-3.89892 -9.81095,-1.15985 l -1.38709,1.23093 -0.12655,2.23966 -0.12655,2.23966 0.52484,1.01494 c 0.28867,0.55821 1.11729,1.44409 1.84138,1.96862 l 1.31653,0.9537 h 2.08387 2.08388 z M 125.46623,183.8301 c 3.59357,-1.32545 6.89377,-2.56627 7.33377,-2.75739 0.73131,-0.31765 4.37888,-1.70197 20.96,-7.9547 3.168,-1.19465 9.576,-3.63706 14.24,-5.42757 12.30627,-4.72439 13.97928,-5.37033 16.64,-6.42463 3.05644,-1.2111 2.97424,-1.22318 3.9089,0.57419 0.93947,1.80661 5.79645,10.4061 7.23737,12.81408 0.55755,0.93174 1.01373,1.80942 1.01373,1.95039 0,0.14096 0.57616,1.14775 1.28037,2.23729 0.7042,1.08954 1.63923,2.68916 2.07784,3.55471 l 0.79746,1.57371 1.14665,0.21512 c 1.45801,0.27352 3.7252,-0.80717 7.17768,-3.42136 1.86766,-1.41418 5.3849,-3.74915 6.72,-4.46118 0.792,-0.42238 2.52,-1.56891 3.84,-2.54784 1.32,-0.97893 3.74899,-2.62586 5.39777,-3.65984 1.64878,-1.03398 3.41278,-2.22917 3.92,-2.65597 l 0.92222,-0.77601 v -1.02358 -1.02358 l -1.61148,-1.58797 -1.61149,-1.58797 -6.52897,-0.0981 -6.52897,-0.0981 -0.51839,-1.3574 c -0.28512,-0.74657 -0.54944,-1.56886 -0.58737,-1.82731 -0.0379,-0.25845 -0.37033,-0.97147 -0.73866,-1.58447 -1.36012,-2.26364 -4.24373,-7.89699 -5.07508,-9.91456 -0.4714,-1.144 -1.27469,-2.73834 -1.7851,-3.54298 -0.51041,-0.80464 -1.09387,-1.95664 -1.29657,-2.56 -0.70119,-2.08721 -2.52466,-3.06971 -4.1163,-2.21789 -0.38817,0.20774 -2.31133,0.72425 -4.27369,1.1478 -1.96236,0.42355 -5.00792,1.1171 -6.76792,1.54124 -4.41595,1.06418 -18.95756,4.48788 -24,5.65059 -2.288,0.52758 -6.248,1.4556 -8.8,2.06227 -2.552,0.60668 -6.296,1.47097 -8.32,1.92065 -2.024,0.44968 -5.14105,1.18406 -6.92678,1.63196 l -3.24679,0.81436 -4.59321,-1.59209 c -2.52627,-0.87565 -6.17722,-2.19321 -8.11322,-2.9279 -1.936,-0.73469 -3.82621,-1.41043 -4.20046,-1.50165 l -0.68046,-0.16586 -4.27954,2.08488 c -2.35375,1.14667 -5.05978,2.39151 -6.0134,2.7663 -2.58927,1.01763 -3.4096,1.73835 -4.8583,4.26841 -0.7243,1.26495 -1.92622,3.23591 -2.67092,4.37991 -0.74471,1.144 -1.967968,3.19924 -2.718351,4.56721 l -1.364333,2.48721 0.188223,0.74993 c 0.103522,0.41247 1.018318,1.44993 2.032881,2.30547 1.01456,0.85554 3.50066,3.14469 5.52466,5.08701 2.024,1.94232 4.39973,4.10562 5.2794,4.80733 0.87968,0.70171 2.49643,2.16686 3.59279,3.2559 3.3459,3.32354 2.70089,3.30887 10.99404,0.25004 z m 14.97527,-35.98176 c 1.34117,-0.34741 3.4465,-0.83316 4.6785,-1.07945 1.232,-0.24629 3.464,-0.7597 4.96,-1.14092 3.348,-0.85314 13.55422,-3.25606 20,-4.70874 4.92549,-1.11004 15.62857,-3.62564 21.6,-5.07676 1.848,-0.44908 3.72,-0.81289 4.16,-0.80848 0.44,0.004 1.808,-0.27769 3.04,-0.6269 1.232,-0.34921 4.616,-1.21143 7.52,-1.91604 l 5.28,-1.28111 0.4,-0.54613 c 0.80726,-1.10219 -0.0915,-4.93252 -1.72061,-7.33321 -1.15003,-1.69466 -2.99905,-5.4663 -3.00158,-6.12261 -0.003,-0.76147 -1.77726,-1.91174 -3.35781,-2.17683 -0.704,-0.11808 -3.656,-0.79891 -6.56,-1.51296 l -5.28,-1.29828 -2.24,0.008 c -1.39791,0.005 -2.9618,0.25418 -4.16,0.66265 -1.056,0.35999 -3.72,1.03872 -5.92,1.50829 -4.16532,0.88903 -6.6158,1.46725 -12,2.83153 -1.76,0.44596 -4.712,1.1128 -6.56,1.48188 -1.848,0.36907 -4.44,1.02414 -5.76,1.4557 -1.32,0.43157 -4.056,1.12482 -6.08,1.54058 -3.57117,0.73356 -13.60472,3.06625 -21.76,5.05896 -2.2,0.53756 -5.368,1.2613 -7.04,1.60831 -4.1306,0.85727 -4.69132,1.18966 -6.72,3.98356 -4.43772,6.11164 -4.45724,6.06206 3.45439,8.77743 2.94008,1.00907 6.78561,2.37242 8.54561,3.02966 1.76,0.65724 4.712,1.72218 6.56,2.36653 1.848,0.64436 3.648,1.34163 4,1.54949 0.86568,0.51119 1.14815,0.49449 3.9615,-0.23427 z M 126.56,122.54609 c 2.66065,-0.73288 7.50449,-1.88501 12.8,-3.04453 2.112,-0.46246 4.488,-1.04186 5.28,-1.28757 0.792,-0.2457 3.4964,-0.88147 6.00978,-1.4128 2.51339,-0.53134 6.83339,-1.52974 9.6,-2.21867 2.76662,-0.68892 5.89422,-1.42079 6.95022,-1.62637 1.056,-0.20557 4.44,-1.0033 7.52,-1.77273 3.08,-0.76943 6.536,-1.44046 7.68,-1.49119 1.144,-0.0507 2.152,-0.18215 2.24,-0.29205 0.16578,-0.20705 2.74387,-0.9019 9.6,-2.58738 2.2,-0.54085 4.10579,-1.14298 4.2351,-1.33808 0.57325,-0.86494 0.17052,-2.36839 -1.20195,-4.48711 -0.78824,-1.216808 -1.43315,-2.335939 -1.43315,-2.486953 0,-0.151015 -0.76522,-1.03979 -1.70049,-1.975056 -0.93526,-0.935266 -2.40896,-2.768136 -3.27488,-4.073044 -1.85013,-2.788073 -3.05876,-4.048616 -4.14273,-4.320674 l -0.78518,-0.197069 -1.63466,1.005811 c -2.13388,1.312992 -3.19795,0.724363 -7.5171,-4.158368 -0.53627,-0.606242 -1.47227,-1.515293 -2.08,-2.020113 -1.41299,-1.173719 -4.54392,-4.173765 -6.3423,-6.077161 -0.76854,-0.813416 -1.87072,-1.771505 -2.4493,-2.129088 l -1.05197,-0.65015 -0.84834,0.38653 c -0.86425,0.393781 -3.52738,4.195326 -7.69733,10.987723 -1.18854,1.936 -2.77171,4.384 -3.51816,5.44 -0.74645,1.056 -1.61075,2.424 -1.92067,3.04 -0.30991,0.616 -1.1943,2.100046 -1.9653,3.29788 l -1.40182,2.17788 -1.35488,-1.133076 c -0.74519,-0.623192 -2.55833,-2.021606 -4.0292,-3.107588 l -2.67431,-1.974513 -0.84569,0.289708 -0.84569,0.289709 -1.6,2.459441 c -4.28834,6.591821 -7.55025,11.690261 -9.99382,15.620561 -1.47723,2.376 -3.32494,5.24713 -4.10602,6.38029 l -1.42016,2.06028 v 0.95452 c 0,0.52498 0.23832,1.21785 0.52959,1.53971 l 0.5296,0.5852 1.3104,-0.0185 c 0.72073,-0.0101 2.31841,-0.2961 3.55041,-0.63546 z"
         id="path3" /></g></g></svg>
